M48
; DRILL file {KiCad (5.1.4-0)} date 2022 April 01, Friday 12:31:42
; FORMAT={-:-/ absolute / metric / decimal}
; #@! TF.CreationDate,2022-04-01T12:31:42+08:00
; #@! TF.GenerationSoftware,Kicad,Pcbnew,(5.1.4-0)
FMAT,2
METRIC
T1C0.400
T2C0.750
T3C0.900
T4C1.000
T5C4.500
%
G90
G05
T1
X86.8Y-99.8
X98.4Y-108.2
X98.4Y-110.6
X99.0Y-90.5
X99.4Y-82.8
T2
X137.4Y-101.8
X137.4Y-103.8
T3
X93.9Y-95.97
X96.1Y-94.7
X131.9Y-73.57
X102.3Y-63.9
X103.57Y-66.1
X124.43Y-101.9
X125.7Y-104.1
X134.1Y-72.3
X134.7Y-84.0
X137.24Y-84.0
X113.96Y-60.7
X113.96Y-63.24
X132.0Y-94.5
X134.2Y-95.77
X93.8Y-72.43
X96.0Y-73.7
X102.23Y-104.1
X103.5Y-101.9
X114.0Y-104.86
X114.0Y-107.4
X90.7Y-84.0
X93.24Y-84.0
X124.3Y-66.1
X125.57Y-63.9
T4
X107.5Y-100.0
X110.04Y-100.0
X112.58Y-100.0
X115.12Y-100.0
X117.66Y-100.0
X120.2Y-100.0
X113.94Y-110.8
X116.48Y-110.8
X85.5Y-79.96
X85.5Y-82.5
X111.4Y-110.8
X133.4Y-101.66
X133.4Y-104.2
T5
X85.0Y-113.0
X85.0Y-55.0
X143.0Y-113.0
X143.0Y-55.0
T0
M30
