G04 #@! TF.GenerationSoftware,KiCad,Pcbnew,(5.1.4-0)*
G04 #@! TF.CreationDate,2022-04-01T12:31:45+08:00*
G04 #@! TF.ProjectId,esp8266_ntp_clock,65737038-3236-4365-9f6e-74705f636c6f,v1.0*
G04 #@! TF.SameCoordinates,Original*
G04 #@! TF.FileFunction,Copper,L1,Top*
G04 #@! TF.FilePolarity,Positive*
%FSLAX46Y46*%
G04 Gerber Fmt 4.6, Leading zero omitted, Abs format (unit mm)*
G04 Created by KiCad (PCBNEW (5.1.4-0)) date 2022-04-01 12:31:45*
%MOMM*%
%LPD*%
G04 APERTURE LIST*
%ADD10C,9.000000*%
%ADD11C,0.100000*%
%ADD12C,0.950000*%
%ADD13C,1.800000*%
%ADD14R,1.800000X1.800000*%
%ADD15R,1.200000X0.900000*%
%ADD16R,1.800000X3.500000*%
%ADD17R,1.700000X1.700000*%
%ADD18O,1.700000X1.700000*%
%ADD19C,1.200000*%
%ADD20O,1.750000X1.200000*%
%ADD21R,0.800000X1.900000*%
%ADD22C,1.150000*%
%ADD23R,2.500000X1.000000*%
%ADD24R,1.560000X0.650000*%
%ADD25C,0.800000*%
%ADD26C,0.500000*%
G04 APERTURE END LIST*
D10*
X85000000Y-113000000D03*
D11*
G36*
X85435779Y-97926144D02*
G01*
X85458834Y-97929563D01*
X85481443Y-97935227D01*
X85503387Y-97943079D01*
X85524457Y-97953044D01*
X85544448Y-97965026D01*
X85563168Y-97978910D01*
X85580438Y-97994562D01*
X85596090Y-98011832D01*
X85609974Y-98030552D01*
X85621956Y-98050543D01*
X85631921Y-98071613D01*
X85639773Y-98093557D01*
X85645437Y-98116166D01*
X85648856Y-98139221D01*
X85650000Y-98162500D01*
X85650000Y-98637500D01*
X85648856Y-98660779D01*
X85645437Y-98683834D01*
X85639773Y-98706443D01*
X85631921Y-98728387D01*
X85621956Y-98749457D01*
X85609974Y-98769448D01*
X85596090Y-98788168D01*
X85580438Y-98805438D01*
X85563168Y-98821090D01*
X85544448Y-98834974D01*
X85524457Y-98846956D01*
X85503387Y-98856921D01*
X85481443Y-98864773D01*
X85458834Y-98870437D01*
X85435779Y-98873856D01*
X85412500Y-98875000D01*
X84837500Y-98875000D01*
X84814221Y-98873856D01*
X84791166Y-98870437D01*
X84768557Y-98864773D01*
X84746613Y-98856921D01*
X84725543Y-98846956D01*
X84705552Y-98834974D01*
X84686832Y-98821090D01*
X84669562Y-98805438D01*
X84653910Y-98788168D01*
X84640026Y-98769448D01*
X84628044Y-98749457D01*
X84618079Y-98728387D01*
X84610227Y-98706443D01*
X84604563Y-98683834D01*
X84601144Y-98660779D01*
X84600000Y-98637500D01*
X84600000Y-98162500D01*
X84601144Y-98139221D01*
X84604563Y-98116166D01*
X84610227Y-98093557D01*
X84618079Y-98071613D01*
X84628044Y-98050543D01*
X84640026Y-98030552D01*
X84653910Y-98011832D01*
X84669562Y-97994562D01*
X84686832Y-97978910D01*
X84705552Y-97965026D01*
X84725543Y-97953044D01*
X84746613Y-97943079D01*
X84768557Y-97935227D01*
X84791166Y-97929563D01*
X84814221Y-97926144D01*
X84837500Y-97925000D01*
X85412500Y-97925000D01*
X85435779Y-97926144D01*
X85435779Y-97926144D01*
G37*
D12*
X85125000Y-98400000D03*
D11*
G36*
X87185779Y-97926144D02*
G01*
X87208834Y-97929563D01*
X87231443Y-97935227D01*
X87253387Y-97943079D01*
X87274457Y-97953044D01*
X87294448Y-97965026D01*
X87313168Y-97978910D01*
X87330438Y-97994562D01*
X87346090Y-98011832D01*
X87359974Y-98030552D01*
X87371956Y-98050543D01*
X87381921Y-98071613D01*
X87389773Y-98093557D01*
X87395437Y-98116166D01*
X87398856Y-98139221D01*
X87400000Y-98162500D01*
X87400000Y-98637500D01*
X87398856Y-98660779D01*
X87395437Y-98683834D01*
X87389773Y-98706443D01*
X87381921Y-98728387D01*
X87371956Y-98749457D01*
X87359974Y-98769448D01*
X87346090Y-98788168D01*
X87330438Y-98805438D01*
X87313168Y-98821090D01*
X87294448Y-98834974D01*
X87274457Y-98846956D01*
X87253387Y-98856921D01*
X87231443Y-98864773D01*
X87208834Y-98870437D01*
X87185779Y-98873856D01*
X87162500Y-98875000D01*
X86587500Y-98875000D01*
X86564221Y-98873856D01*
X86541166Y-98870437D01*
X86518557Y-98864773D01*
X86496613Y-98856921D01*
X86475543Y-98846956D01*
X86455552Y-98834974D01*
X86436832Y-98821090D01*
X86419562Y-98805438D01*
X86403910Y-98788168D01*
X86390026Y-98769448D01*
X86378044Y-98749457D01*
X86368079Y-98728387D01*
X86360227Y-98706443D01*
X86354563Y-98683834D01*
X86351144Y-98660779D01*
X86350000Y-98637500D01*
X86350000Y-98162500D01*
X86351144Y-98139221D01*
X86354563Y-98116166D01*
X86360227Y-98093557D01*
X86368079Y-98071613D01*
X86378044Y-98050543D01*
X86390026Y-98030552D01*
X86403910Y-98011832D01*
X86419562Y-97994562D01*
X86436832Y-97978910D01*
X86455552Y-97965026D01*
X86475543Y-97953044D01*
X86496613Y-97943079D01*
X86518557Y-97935227D01*
X86541166Y-97929563D01*
X86564221Y-97926144D01*
X86587500Y-97925000D01*
X87162500Y-97925000D01*
X87185779Y-97926144D01*
X87185779Y-97926144D01*
G37*
D12*
X86875000Y-98400000D03*
D11*
G36*
X90985779Y-97926144D02*
G01*
X91008834Y-97929563D01*
X91031443Y-97935227D01*
X91053387Y-97943079D01*
X91074457Y-97953044D01*
X91094448Y-97965026D01*
X91113168Y-97978910D01*
X91130438Y-97994562D01*
X91146090Y-98011832D01*
X91159974Y-98030552D01*
X91171956Y-98050543D01*
X91181921Y-98071613D01*
X91189773Y-98093557D01*
X91195437Y-98116166D01*
X91198856Y-98139221D01*
X91200000Y-98162500D01*
X91200000Y-98637500D01*
X91198856Y-98660779D01*
X91195437Y-98683834D01*
X91189773Y-98706443D01*
X91181921Y-98728387D01*
X91171956Y-98749457D01*
X91159974Y-98769448D01*
X91146090Y-98788168D01*
X91130438Y-98805438D01*
X91113168Y-98821090D01*
X91094448Y-98834974D01*
X91074457Y-98846956D01*
X91053387Y-98856921D01*
X91031443Y-98864773D01*
X91008834Y-98870437D01*
X90985779Y-98873856D01*
X90962500Y-98875000D01*
X90387500Y-98875000D01*
X90364221Y-98873856D01*
X90341166Y-98870437D01*
X90318557Y-98864773D01*
X90296613Y-98856921D01*
X90275543Y-98846956D01*
X90255552Y-98834974D01*
X90236832Y-98821090D01*
X90219562Y-98805438D01*
X90203910Y-98788168D01*
X90190026Y-98769448D01*
X90178044Y-98749457D01*
X90168079Y-98728387D01*
X90160227Y-98706443D01*
X90154563Y-98683834D01*
X90151144Y-98660779D01*
X90150000Y-98637500D01*
X90150000Y-98162500D01*
X90151144Y-98139221D01*
X90154563Y-98116166D01*
X90160227Y-98093557D01*
X90168079Y-98071613D01*
X90178044Y-98050543D01*
X90190026Y-98030552D01*
X90203910Y-98011832D01*
X90219562Y-97994562D01*
X90236832Y-97978910D01*
X90255552Y-97965026D01*
X90275543Y-97953044D01*
X90296613Y-97943079D01*
X90318557Y-97935227D01*
X90341166Y-97929563D01*
X90364221Y-97926144D01*
X90387500Y-97925000D01*
X90962500Y-97925000D01*
X90985779Y-97926144D01*
X90985779Y-97926144D01*
G37*
D12*
X90675000Y-98400000D03*
D11*
G36*
X89235779Y-97926144D02*
G01*
X89258834Y-97929563D01*
X89281443Y-97935227D01*
X89303387Y-97943079D01*
X89324457Y-97953044D01*
X89344448Y-97965026D01*
X89363168Y-97978910D01*
X89380438Y-97994562D01*
X89396090Y-98011832D01*
X89409974Y-98030552D01*
X89421956Y-98050543D01*
X89431921Y-98071613D01*
X89439773Y-98093557D01*
X89445437Y-98116166D01*
X89448856Y-98139221D01*
X89450000Y-98162500D01*
X89450000Y-98637500D01*
X89448856Y-98660779D01*
X89445437Y-98683834D01*
X89439773Y-98706443D01*
X89431921Y-98728387D01*
X89421956Y-98749457D01*
X89409974Y-98769448D01*
X89396090Y-98788168D01*
X89380438Y-98805438D01*
X89363168Y-98821090D01*
X89344448Y-98834974D01*
X89324457Y-98846956D01*
X89303387Y-98856921D01*
X89281443Y-98864773D01*
X89258834Y-98870437D01*
X89235779Y-98873856D01*
X89212500Y-98875000D01*
X88637500Y-98875000D01*
X88614221Y-98873856D01*
X88591166Y-98870437D01*
X88568557Y-98864773D01*
X88546613Y-98856921D01*
X88525543Y-98846956D01*
X88505552Y-98834974D01*
X88486832Y-98821090D01*
X88469562Y-98805438D01*
X88453910Y-98788168D01*
X88440026Y-98769448D01*
X88428044Y-98749457D01*
X88418079Y-98728387D01*
X88410227Y-98706443D01*
X88404563Y-98683834D01*
X88401144Y-98660779D01*
X88400000Y-98637500D01*
X88400000Y-98162500D01*
X88401144Y-98139221D01*
X88404563Y-98116166D01*
X88410227Y-98093557D01*
X88418079Y-98071613D01*
X88428044Y-98050543D01*
X88440026Y-98030552D01*
X88453910Y-98011832D01*
X88469562Y-97994562D01*
X88486832Y-97978910D01*
X88505552Y-97965026D01*
X88525543Y-97953044D01*
X88546613Y-97943079D01*
X88568557Y-97935227D01*
X88591166Y-97929563D01*
X88614221Y-97926144D01*
X88637500Y-97925000D01*
X89212500Y-97925000D01*
X89235779Y-97926144D01*
X89235779Y-97926144D01*
G37*
D12*
X88925000Y-98400000D03*
D13*
X103570000Y-66099705D03*
X102300000Y-63900000D03*
D11*
G36*
X101070577Y-63570577D02*
G01*
X102629423Y-62670577D01*
X103529423Y-64229423D01*
X101970577Y-65129423D01*
X101070577Y-63570577D01*
X101070577Y-63570577D01*
G37*
D13*
X96000000Y-73700000D03*
D11*
G36*
X97229423Y-73370577D02*
G01*
X96329423Y-74929423D01*
X94770577Y-74029423D01*
X95670577Y-72470577D01*
X97229423Y-73370577D01*
X97229423Y-73370577D01*
G37*
D13*
X93800295Y-72430000D03*
X93240000Y-84000000D03*
D14*
X90700000Y-84000000D03*
D13*
X96100000Y-94700000D03*
D11*
G36*
X96429423Y-93470577D02*
G01*
X97329423Y-95029423D01*
X95770577Y-95929423D01*
X94870577Y-94370577D01*
X96429423Y-93470577D01*
X96429423Y-93470577D01*
G37*
D13*
X93900295Y-95970000D03*
X102230000Y-104099705D03*
X103500000Y-101900000D03*
D11*
G36*
X103170577Y-100670577D02*
G01*
X104729423Y-101570577D01*
X103829423Y-103129423D01*
X102270577Y-102229423D01*
X103170577Y-100670577D01*
X103170577Y-100670577D01*
G37*
D14*
X114000000Y-107400000D03*
D13*
X114000000Y-104860000D03*
X124430000Y-101900295D03*
X125700000Y-104100000D03*
D11*
G36*
X126929423Y-104429423D02*
G01*
X125370577Y-105329423D01*
X124470577Y-103770577D01*
X126029423Y-102870577D01*
X126929423Y-104429423D01*
X126929423Y-104429423D01*
G37*
D13*
X132000000Y-94500000D03*
D11*
G36*
X130770577Y-94829423D02*
G01*
X131670577Y-93270577D01*
X133229423Y-94170577D01*
X132329423Y-95729423D01*
X130770577Y-94829423D01*
X130770577Y-94829423D01*
G37*
D13*
X134199705Y-95770000D03*
X137240000Y-84000000D03*
D14*
X134700000Y-84000000D03*
D13*
X134100000Y-72300000D03*
D11*
G36*
X134429423Y-71070577D02*
G01*
X135329423Y-72629423D01*
X133770577Y-73529423D01*
X132870577Y-71970577D01*
X134429423Y-71070577D01*
X134429423Y-71070577D01*
G37*
D13*
X131900295Y-73570000D03*
X125570000Y-63900295D03*
X124300000Y-66100000D03*
D11*
G36*
X124629423Y-67329423D02*
G01*
X123070577Y-66429423D01*
X123970577Y-64870577D01*
X125529423Y-65770577D01*
X124629423Y-67329423D01*
X124629423Y-67329423D01*
G37*
D14*
X113960000Y-60700000D03*
D13*
X113960000Y-63240000D03*
D15*
X102000000Y-86150000D03*
X102000000Y-82850000D03*
D16*
X101000000Y-109500000D03*
X101000000Y-114500000D03*
D10*
X85000000Y-55000000D03*
X143000000Y-55000000D03*
X143000000Y-113000000D03*
D17*
X85500000Y-82500000D03*
D18*
X85500000Y-79960000D03*
D17*
X107500000Y-100000000D03*
D18*
X110040000Y-100000000D03*
X112580000Y-100000000D03*
X115120000Y-100000000D03*
X117660000Y-100000000D03*
X120200000Y-100000000D03*
D17*
X111400000Y-110800000D03*
D18*
X113940000Y-110800000D03*
X116480000Y-110800000D03*
D11*
G36*
X138049505Y-103201204D02*
G01*
X138073773Y-103204804D01*
X138097572Y-103210765D01*
X138120671Y-103219030D01*
X138142850Y-103229520D01*
X138163893Y-103242132D01*
X138183599Y-103256747D01*
X138201777Y-103273223D01*
X138218253Y-103291401D01*
X138232868Y-103311107D01*
X138245480Y-103332150D01*
X138255970Y-103354329D01*
X138264235Y-103377428D01*
X138270196Y-103401227D01*
X138273796Y-103425495D01*
X138275000Y-103449999D01*
X138275000Y-104150001D01*
X138273796Y-104174505D01*
X138270196Y-104198773D01*
X138264235Y-104222572D01*
X138255970Y-104245671D01*
X138245480Y-104267850D01*
X138232868Y-104288893D01*
X138218253Y-104308599D01*
X138201777Y-104326777D01*
X138183599Y-104343253D01*
X138163893Y-104357868D01*
X138142850Y-104370480D01*
X138120671Y-104380970D01*
X138097572Y-104389235D01*
X138073773Y-104395196D01*
X138049505Y-104398796D01*
X138025001Y-104400000D01*
X136774999Y-104400000D01*
X136750495Y-104398796D01*
X136726227Y-104395196D01*
X136702428Y-104389235D01*
X136679329Y-104380970D01*
X136657150Y-104370480D01*
X136636107Y-104357868D01*
X136616401Y-104343253D01*
X136598223Y-104326777D01*
X136581747Y-104308599D01*
X136567132Y-104288893D01*
X136554520Y-104267850D01*
X136544030Y-104245671D01*
X136535765Y-104222572D01*
X136529804Y-104198773D01*
X136526204Y-104174505D01*
X136525000Y-104150001D01*
X136525000Y-103449999D01*
X136526204Y-103425495D01*
X136529804Y-103401227D01*
X136535765Y-103377428D01*
X136544030Y-103354329D01*
X136554520Y-103332150D01*
X136567132Y-103311107D01*
X136581747Y-103291401D01*
X136598223Y-103273223D01*
X136616401Y-103256747D01*
X136636107Y-103242132D01*
X136657150Y-103229520D01*
X136679329Y-103219030D01*
X136702428Y-103210765D01*
X136726227Y-103204804D01*
X136750495Y-103201204D01*
X136774999Y-103200000D01*
X138025001Y-103200000D01*
X138049505Y-103201204D01*
X138049505Y-103201204D01*
G37*
D19*
X137400000Y-103800000D03*
D20*
X137400000Y-101800000D03*
D21*
X95050000Y-113500000D03*
X96950000Y-113500000D03*
X96000000Y-110500000D03*
D11*
G36*
X126185779Y-84526144D02*
G01*
X126208834Y-84529563D01*
X126231443Y-84535227D01*
X126253387Y-84543079D01*
X126274457Y-84553044D01*
X126294448Y-84565026D01*
X126313168Y-84578910D01*
X126330438Y-84594562D01*
X126346090Y-84611832D01*
X126359974Y-84630552D01*
X126371956Y-84650543D01*
X126381921Y-84671613D01*
X126389773Y-84693557D01*
X126395437Y-84716166D01*
X126398856Y-84739221D01*
X126400000Y-84762500D01*
X126400000Y-85237500D01*
X126398856Y-85260779D01*
X126395437Y-85283834D01*
X126389773Y-85306443D01*
X126381921Y-85328387D01*
X126371956Y-85349457D01*
X126359974Y-85369448D01*
X126346090Y-85388168D01*
X126330438Y-85405438D01*
X126313168Y-85421090D01*
X126294448Y-85434974D01*
X126274457Y-85446956D01*
X126253387Y-85456921D01*
X126231443Y-85464773D01*
X126208834Y-85470437D01*
X126185779Y-85473856D01*
X126162500Y-85475000D01*
X125587500Y-85475000D01*
X125564221Y-85473856D01*
X125541166Y-85470437D01*
X125518557Y-85464773D01*
X125496613Y-85456921D01*
X125475543Y-85446956D01*
X125455552Y-85434974D01*
X125436832Y-85421090D01*
X125419562Y-85405438D01*
X125403910Y-85388168D01*
X125390026Y-85369448D01*
X125378044Y-85349457D01*
X125368079Y-85328387D01*
X125360227Y-85306443D01*
X125354563Y-85283834D01*
X125351144Y-85260779D01*
X125350000Y-85237500D01*
X125350000Y-84762500D01*
X125351144Y-84739221D01*
X125354563Y-84716166D01*
X125360227Y-84693557D01*
X125368079Y-84671613D01*
X125378044Y-84650543D01*
X125390026Y-84630552D01*
X125403910Y-84611832D01*
X125419562Y-84594562D01*
X125436832Y-84578910D01*
X125455552Y-84565026D01*
X125475543Y-84553044D01*
X125496613Y-84543079D01*
X125518557Y-84535227D01*
X125541166Y-84529563D01*
X125564221Y-84526144D01*
X125587500Y-84525000D01*
X126162500Y-84525000D01*
X126185779Y-84526144D01*
X126185779Y-84526144D01*
G37*
D12*
X125875000Y-85000000D03*
D11*
G36*
X124435779Y-84526144D02*
G01*
X124458834Y-84529563D01*
X124481443Y-84535227D01*
X124503387Y-84543079D01*
X124524457Y-84553044D01*
X124544448Y-84565026D01*
X124563168Y-84578910D01*
X124580438Y-84594562D01*
X124596090Y-84611832D01*
X124609974Y-84630552D01*
X124621956Y-84650543D01*
X124631921Y-84671613D01*
X124639773Y-84693557D01*
X124645437Y-84716166D01*
X124648856Y-84739221D01*
X124650000Y-84762500D01*
X124650000Y-85237500D01*
X124648856Y-85260779D01*
X124645437Y-85283834D01*
X124639773Y-85306443D01*
X124631921Y-85328387D01*
X124621956Y-85349457D01*
X124609974Y-85369448D01*
X124596090Y-85388168D01*
X124580438Y-85405438D01*
X124563168Y-85421090D01*
X124544448Y-85434974D01*
X124524457Y-85446956D01*
X124503387Y-85456921D01*
X124481443Y-85464773D01*
X124458834Y-85470437D01*
X124435779Y-85473856D01*
X124412500Y-85475000D01*
X123837500Y-85475000D01*
X123814221Y-85473856D01*
X123791166Y-85470437D01*
X123768557Y-85464773D01*
X123746613Y-85456921D01*
X123725543Y-85446956D01*
X123705552Y-85434974D01*
X123686832Y-85421090D01*
X123669562Y-85405438D01*
X123653910Y-85388168D01*
X123640026Y-85369448D01*
X123628044Y-85349457D01*
X123618079Y-85328387D01*
X123610227Y-85306443D01*
X123604563Y-85283834D01*
X123601144Y-85260779D01*
X123600000Y-85237500D01*
X123600000Y-84762500D01*
X123601144Y-84739221D01*
X123604563Y-84716166D01*
X123610227Y-84693557D01*
X123618079Y-84671613D01*
X123628044Y-84650543D01*
X123640026Y-84630552D01*
X123653910Y-84611832D01*
X123669562Y-84594562D01*
X123686832Y-84578910D01*
X123705552Y-84565026D01*
X123725543Y-84553044D01*
X123746613Y-84543079D01*
X123768557Y-84535227D01*
X123791166Y-84529563D01*
X123814221Y-84526144D01*
X123837500Y-84525000D01*
X124412500Y-84525000D01*
X124435779Y-84526144D01*
X124435779Y-84526144D01*
G37*
D12*
X124125000Y-85000000D03*
D11*
G36*
X103385779Y-91626144D02*
G01*
X103408834Y-91629563D01*
X103431443Y-91635227D01*
X103453387Y-91643079D01*
X103474457Y-91653044D01*
X103494448Y-91665026D01*
X103513168Y-91678910D01*
X103530438Y-91694562D01*
X103546090Y-91711832D01*
X103559974Y-91730552D01*
X103571956Y-91750543D01*
X103581921Y-91771613D01*
X103589773Y-91793557D01*
X103595437Y-91816166D01*
X103598856Y-91839221D01*
X103600000Y-91862500D01*
X103600000Y-92337500D01*
X103598856Y-92360779D01*
X103595437Y-92383834D01*
X103589773Y-92406443D01*
X103581921Y-92428387D01*
X103571956Y-92449457D01*
X103559974Y-92469448D01*
X103546090Y-92488168D01*
X103530438Y-92505438D01*
X103513168Y-92521090D01*
X103494448Y-92534974D01*
X103474457Y-92546956D01*
X103453387Y-92556921D01*
X103431443Y-92564773D01*
X103408834Y-92570437D01*
X103385779Y-92573856D01*
X103362500Y-92575000D01*
X102787500Y-92575000D01*
X102764221Y-92573856D01*
X102741166Y-92570437D01*
X102718557Y-92564773D01*
X102696613Y-92556921D01*
X102675543Y-92546956D01*
X102655552Y-92534974D01*
X102636832Y-92521090D01*
X102619562Y-92505438D01*
X102603910Y-92488168D01*
X102590026Y-92469448D01*
X102578044Y-92449457D01*
X102568079Y-92428387D01*
X102560227Y-92406443D01*
X102554563Y-92383834D01*
X102551144Y-92360779D01*
X102550000Y-92337500D01*
X102550000Y-91862500D01*
X102551144Y-91839221D01*
X102554563Y-91816166D01*
X102560227Y-91793557D01*
X102568079Y-91771613D01*
X102578044Y-91750543D01*
X102590026Y-91730552D01*
X102603910Y-91711832D01*
X102619562Y-91694562D01*
X102636832Y-91678910D01*
X102655552Y-91665026D01*
X102675543Y-91653044D01*
X102696613Y-91643079D01*
X102718557Y-91635227D01*
X102741166Y-91629563D01*
X102764221Y-91626144D01*
X102787500Y-91625000D01*
X103362500Y-91625000D01*
X103385779Y-91626144D01*
X103385779Y-91626144D01*
G37*
D12*
X103075000Y-92100000D03*
D11*
G36*
X101635779Y-91626144D02*
G01*
X101658834Y-91629563D01*
X101681443Y-91635227D01*
X101703387Y-91643079D01*
X101724457Y-91653044D01*
X101744448Y-91665026D01*
X101763168Y-91678910D01*
X101780438Y-91694562D01*
X101796090Y-91711832D01*
X101809974Y-91730552D01*
X101821956Y-91750543D01*
X101831921Y-91771613D01*
X101839773Y-91793557D01*
X101845437Y-91816166D01*
X101848856Y-91839221D01*
X101850000Y-91862500D01*
X101850000Y-92337500D01*
X101848856Y-92360779D01*
X101845437Y-92383834D01*
X101839773Y-92406443D01*
X101831921Y-92428387D01*
X101821956Y-92449457D01*
X101809974Y-92469448D01*
X101796090Y-92488168D01*
X101780438Y-92505438D01*
X101763168Y-92521090D01*
X101744448Y-92534974D01*
X101724457Y-92546956D01*
X101703387Y-92556921D01*
X101681443Y-92564773D01*
X101658834Y-92570437D01*
X101635779Y-92573856D01*
X101612500Y-92575000D01*
X101037500Y-92575000D01*
X101014221Y-92573856D01*
X100991166Y-92570437D01*
X100968557Y-92564773D01*
X100946613Y-92556921D01*
X100925543Y-92546956D01*
X100905552Y-92534974D01*
X100886832Y-92521090D01*
X100869562Y-92505438D01*
X100853910Y-92488168D01*
X100840026Y-92469448D01*
X100828044Y-92449457D01*
X100818079Y-92428387D01*
X100810227Y-92406443D01*
X100804563Y-92383834D01*
X100801144Y-92360779D01*
X100800000Y-92337500D01*
X100800000Y-91862500D01*
X100801144Y-91839221D01*
X100804563Y-91816166D01*
X100810227Y-91793557D01*
X100818079Y-91771613D01*
X100828044Y-91750543D01*
X100840026Y-91730552D01*
X100853910Y-91711832D01*
X100869562Y-91694562D01*
X100886832Y-91678910D01*
X100905552Y-91665026D01*
X100925543Y-91653044D01*
X100946613Y-91643079D01*
X100968557Y-91635227D01*
X100991166Y-91629563D01*
X101014221Y-91626144D01*
X101037500Y-91625000D01*
X101612500Y-91625000D01*
X101635779Y-91626144D01*
X101635779Y-91626144D01*
G37*
D12*
X101325000Y-92100000D03*
D11*
G36*
X101435779Y-93626144D02*
G01*
X101458834Y-93629563D01*
X101481443Y-93635227D01*
X101503387Y-93643079D01*
X101524457Y-93653044D01*
X101544448Y-93665026D01*
X101563168Y-93678910D01*
X101580438Y-93694562D01*
X101596090Y-93711832D01*
X101609974Y-93730552D01*
X101621956Y-93750543D01*
X101631921Y-93771613D01*
X101639773Y-93793557D01*
X101645437Y-93816166D01*
X101648856Y-93839221D01*
X101650000Y-93862500D01*
X101650000Y-94337500D01*
X101648856Y-94360779D01*
X101645437Y-94383834D01*
X101639773Y-94406443D01*
X101631921Y-94428387D01*
X101621956Y-94449457D01*
X101609974Y-94469448D01*
X101596090Y-94488168D01*
X101580438Y-94505438D01*
X101563168Y-94521090D01*
X101544448Y-94534974D01*
X101524457Y-94546956D01*
X101503387Y-94556921D01*
X101481443Y-94564773D01*
X101458834Y-94570437D01*
X101435779Y-94573856D01*
X101412500Y-94575000D01*
X100837500Y-94575000D01*
X100814221Y-94573856D01*
X100791166Y-94570437D01*
X100768557Y-94564773D01*
X100746613Y-94556921D01*
X100725543Y-94546956D01*
X100705552Y-94534974D01*
X100686832Y-94521090D01*
X100669562Y-94505438D01*
X100653910Y-94488168D01*
X100640026Y-94469448D01*
X100628044Y-94449457D01*
X100618079Y-94428387D01*
X100610227Y-94406443D01*
X100604563Y-94383834D01*
X100601144Y-94360779D01*
X100600000Y-94337500D01*
X100600000Y-93862500D01*
X100601144Y-93839221D01*
X100604563Y-93816166D01*
X100610227Y-93793557D01*
X100618079Y-93771613D01*
X100628044Y-93750543D01*
X100640026Y-93730552D01*
X100653910Y-93711832D01*
X100669562Y-93694562D01*
X100686832Y-93678910D01*
X100705552Y-93665026D01*
X100725543Y-93653044D01*
X100746613Y-93643079D01*
X100768557Y-93635227D01*
X100791166Y-93629563D01*
X100814221Y-93626144D01*
X100837500Y-93625000D01*
X101412500Y-93625000D01*
X101435779Y-93626144D01*
X101435779Y-93626144D01*
G37*
D12*
X101125000Y-94100000D03*
D11*
G36*
X103185779Y-93626144D02*
G01*
X103208834Y-93629563D01*
X103231443Y-93635227D01*
X103253387Y-93643079D01*
X103274457Y-93653044D01*
X103294448Y-93665026D01*
X103313168Y-93678910D01*
X103330438Y-93694562D01*
X103346090Y-93711832D01*
X103359974Y-93730552D01*
X103371956Y-93750543D01*
X103381921Y-93771613D01*
X103389773Y-93793557D01*
X103395437Y-93816166D01*
X103398856Y-93839221D01*
X103400000Y-93862500D01*
X103400000Y-94337500D01*
X103398856Y-94360779D01*
X103395437Y-94383834D01*
X103389773Y-94406443D01*
X103381921Y-94428387D01*
X103371956Y-94449457D01*
X103359974Y-94469448D01*
X103346090Y-94488168D01*
X103330438Y-94505438D01*
X103313168Y-94521090D01*
X103294448Y-94534974D01*
X103274457Y-94546956D01*
X103253387Y-94556921D01*
X103231443Y-94564773D01*
X103208834Y-94570437D01*
X103185779Y-94573856D01*
X103162500Y-94575000D01*
X102587500Y-94575000D01*
X102564221Y-94573856D01*
X102541166Y-94570437D01*
X102518557Y-94564773D01*
X102496613Y-94556921D01*
X102475543Y-94546956D01*
X102455552Y-94534974D01*
X102436832Y-94521090D01*
X102419562Y-94505438D01*
X102403910Y-94488168D01*
X102390026Y-94469448D01*
X102378044Y-94449457D01*
X102368079Y-94428387D01*
X102360227Y-94406443D01*
X102354563Y-94383834D01*
X102351144Y-94360779D01*
X102350000Y-94337500D01*
X102350000Y-93862500D01*
X102351144Y-93839221D01*
X102354563Y-93816166D01*
X102360227Y-93793557D01*
X102368079Y-93771613D01*
X102378044Y-93750543D01*
X102390026Y-93730552D01*
X102403910Y-93711832D01*
X102419562Y-93694562D01*
X102436832Y-93678910D01*
X102455552Y-93665026D01*
X102475543Y-93653044D01*
X102496613Y-93643079D01*
X102518557Y-93635227D01*
X102541166Y-93629563D01*
X102564221Y-93626144D01*
X102587500Y-93625000D01*
X103162500Y-93625000D01*
X103185779Y-93626144D01*
X103185779Y-93626144D01*
G37*
D12*
X102875000Y-94100000D03*
D11*
G36*
X103385779Y-89726144D02*
G01*
X103408834Y-89729563D01*
X103431443Y-89735227D01*
X103453387Y-89743079D01*
X103474457Y-89753044D01*
X103494448Y-89765026D01*
X103513168Y-89778910D01*
X103530438Y-89794562D01*
X103546090Y-89811832D01*
X103559974Y-89830552D01*
X103571956Y-89850543D01*
X103581921Y-89871613D01*
X103589773Y-89893557D01*
X103595437Y-89916166D01*
X103598856Y-89939221D01*
X103600000Y-89962500D01*
X103600000Y-90437500D01*
X103598856Y-90460779D01*
X103595437Y-90483834D01*
X103589773Y-90506443D01*
X103581921Y-90528387D01*
X103571956Y-90549457D01*
X103559974Y-90569448D01*
X103546090Y-90588168D01*
X103530438Y-90605438D01*
X103513168Y-90621090D01*
X103494448Y-90634974D01*
X103474457Y-90646956D01*
X103453387Y-90656921D01*
X103431443Y-90664773D01*
X103408834Y-90670437D01*
X103385779Y-90673856D01*
X103362500Y-90675000D01*
X102787500Y-90675000D01*
X102764221Y-90673856D01*
X102741166Y-90670437D01*
X102718557Y-90664773D01*
X102696613Y-90656921D01*
X102675543Y-90646956D01*
X102655552Y-90634974D01*
X102636832Y-90621090D01*
X102619562Y-90605438D01*
X102603910Y-90588168D01*
X102590026Y-90569448D01*
X102578044Y-90549457D01*
X102568079Y-90528387D01*
X102560227Y-90506443D01*
X102554563Y-90483834D01*
X102551144Y-90460779D01*
X102550000Y-90437500D01*
X102550000Y-89962500D01*
X102551144Y-89939221D01*
X102554563Y-89916166D01*
X102560227Y-89893557D01*
X102568079Y-89871613D01*
X102578044Y-89850543D01*
X102590026Y-89830552D01*
X102603910Y-89811832D01*
X102619562Y-89794562D01*
X102636832Y-89778910D01*
X102655552Y-89765026D01*
X102675543Y-89753044D01*
X102696613Y-89743079D01*
X102718557Y-89735227D01*
X102741166Y-89729563D01*
X102764221Y-89726144D01*
X102787500Y-89725000D01*
X103362500Y-89725000D01*
X103385779Y-89726144D01*
X103385779Y-89726144D01*
G37*
D12*
X103075000Y-90200000D03*
D11*
G36*
X101635779Y-89726144D02*
G01*
X101658834Y-89729563D01*
X101681443Y-89735227D01*
X101703387Y-89743079D01*
X101724457Y-89753044D01*
X101744448Y-89765026D01*
X101763168Y-89778910D01*
X101780438Y-89794562D01*
X101796090Y-89811832D01*
X101809974Y-89830552D01*
X101821956Y-89850543D01*
X101831921Y-89871613D01*
X101839773Y-89893557D01*
X101845437Y-89916166D01*
X101848856Y-89939221D01*
X101850000Y-89962500D01*
X101850000Y-90437500D01*
X101848856Y-90460779D01*
X101845437Y-90483834D01*
X101839773Y-90506443D01*
X101831921Y-90528387D01*
X101821956Y-90549457D01*
X101809974Y-90569448D01*
X101796090Y-90588168D01*
X101780438Y-90605438D01*
X101763168Y-90621090D01*
X101744448Y-90634974D01*
X101724457Y-90646956D01*
X101703387Y-90656921D01*
X101681443Y-90664773D01*
X101658834Y-90670437D01*
X101635779Y-90673856D01*
X101612500Y-90675000D01*
X101037500Y-90675000D01*
X101014221Y-90673856D01*
X100991166Y-90670437D01*
X100968557Y-90664773D01*
X100946613Y-90656921D01*
X100925543Y-90646956D01*
X100905552Y-90634974D01*
X100886832Y-90621090D01*
X100869562Y-90605438D01*
X100853910Y-90588168D01*
X100840026Y-90569448D01*
X100828044Y-90549457D01*
X100818079Y-90528387D01*
X100810227Y-90506443D01*
X100804563Y-90483834D01*
X100801144Y-90460779D01*
X100800000Y-90437500D01*
X100800000Y-89962500D01*
X100801144Y-89939221D01*
X100804563Y-89916166D01*
X100810227Y-89893557D01*
X100818079Y-89871613D01*
X100828044Y-89850543D01*
X100840026Y-89830552D01*
X100853910Y-89811832D01*
X100869562Y-89794562D01*
X100886832Y-89778910D01*
X100905552Y-89765026D01*
X100925543Y-89753044D01*
X100946613Y-89743079D01*
X100968557Y-89735227D01*
X100991166Y-89729563D01*
X101014221Y-89726144D01*
X101037500Y-89725000D01*
X101612500Y-89725000D01*
X101635779Y-89726144D01*
X101635779Y-89726144D01*
G37*
D12*
X101325000Y-90200000D03*
D11*
G36*
X92474505Y-112451204D02*
G01*
X92498773Y-112454804D01*
X92522572Y-112460765D01*
X92545671Y-112469030D01*
X92567850Y-112479520D01*
X92588893Y-112492132D01*
X92608599Y-112506747D01*
X92626777Y-112523223D01*
X92643253Y-112541401D01*
X92657868Y-112561107D01*
X92670480Y-112582150D01*
X92680970Y-112604329D01*
X92689235Y-112627428D01*
X92695196Y-112651227D01*
X92698796Y-112675495D01*
X92700000Y-112699999D01*
X92700000Y-113350001D01*
X92698796Y-113374505D01*
X92695196Y-113398773D01*
X92689235Y-113422572D01*
X92680970Y-113445671D01*
X92670480Y-113467850D01*
X92657868Y-113488893D01*
X92643253Y-113508599D01*
X92626777Y-113526777D01*
X92608599Y-113543253D01*
X92588893Y-113557868D01*
X92567850Y-113570480D01*
X92545671Y-113580970D01*
X92522572Y-113589235D01*
X92498773Y-113595196D01*
X92474505Y-113598796D01*
X92450001Y-113600000D01*
X91549999Y-113600000D01*
X91525495Y-113598796D01*
X91501227Y-113595196D01*
X91477428Y-113589235D01*
X91454329Y-113580970D01*
X91432150Y-113570480D01*
X91411107Y-113557868D01*
X91391401Y-113543253D01*
X91373223Y-113526777D01*
X91356747Y-113508599D01*
X91342132Y-113488893D01*
X91329520Y-113467850D01*
X91319030Y-113445671D01*
X91310765Y-113422572D01*
X91304804Y-113398773D01*
X91301204Y-113374505D01*
X91300000Y-113350001D01*
X91300000Y-112699999D01*
X91301204Y-112675495D01*
X91304804Y-112651227D01*
X91310765Y-112627428D01*
X91319030Y-112604329D01*
X91329520Y-112582150D01*
X91342132Y-112561107D01*
X91356747Y-112541401D01*
X91373223Y-112523223D01*
X91391401Y-112506747D01*
X91411107Y-112492132D01*
X91432150Y-112479520D01*
X91454329Y-112469030D01*
X91477428Y-112460765D01*
X91501227Y-112454804D01*
X91525495Y-112451204D01*
X91549999Y-112450000D01*
X92450001Y-112450000D01*
X92474505Y-112451204D01*
X92474505Y-112451204D01*
G37*
D22*
X92000000Y-113025000D03*
D11*
G36*
X92474505Y-110401204D02*
G01*
X92498773Y-110404804D01*
X92522572Y-110410765D01*
X92545671Y-110419030D01*
X92567850Y-110429520D01*
X92588893Y-110442132D01*
X92608599Y-110456747D01*
X92626777Y-110473223D01*
X92643253Y-110491401D01*
X92657868Y-110511107D01*
X92670480Y-110532150D01*
X92680970Y-110554329D01*
X92689235Y-110577428D01*
X92695196Y-110601227D01*
X92698796Y-110625495D01*
X92700000Y-110649999D01*
X92700000Y-111300001D01*
X92698796Y-111324505D01*
X92695196Y-111348773D01*
X92689235Y-111372572D01*
X92680970Y-111395671D01*
X92670480Y-111417850D01*
X92657868Y-111438893D01*
X92643253Y-111458599D01*
X92626777Y-111476777D01*
X92608599Y-111493253D01*
X92588893Y-111507868D01*
X92567850Y-111520480D01*
X92545671Y-111530970D01*
X92522572Y-111539235D01*
X92498773Y-111545196D01*
X92474505Y-111548796D01*
X92450001Y-111550000D01*
X91549999Y-111550000D01*
X91525495Y-111548796D01*
X91501227Y-111545196D01*
X91477428Y-111539235D01*
X91454329Y-111530970D01*
X91432150Y-111520480D01*
X91411107Y-111507868D01*
X91391401Y-111493253D01*
X91373223Y-111476777D01*
X91356747Y-111458599D01*
X91342132Y-111438893D01*
X91329520Y-111417850D01*
X91319030Y-111395671D01*
X91310765Y-111372572D01*
X91304804Y-111348773D01*
X91301204Y-111324505D01*
X91300000Y-111300001D01*
X91300000Y-110649999D01*
X91301204Y-110625495D01*
X91304804Y-110601227D01*
X91310765Y-110577428D01*
X91319030Y-110554329D01*
X91329520Y-110532150D01*
X91342132Y-110511107D01*
X91356747Y-110491401D01*
X91373223Y-110473223D01*
X91391401Y-110456747D01*
X91411107Y-110442132D01*
X91432150Y-110429520D01*
X91454329Y-110419030D01*
X91477428Y-110410765D01*
X91501227Y-110404804D01*
X91525495Y-110401204D01*
X91549999Y-110400000D01*
X92450001Y-110400000D01*
X92474505Y-110401204D01*
X92474505Y-110401204D01*
G37*
D22*
X92000000Y-110975000D03*
D23*
X121300000Y-81100000D03*
X121300000Y-83100000D03*
X121300000Y-85100000D03*
X121300000Y-87100000D03*
X121300000Y-89100000D03*
X121300000Y-91100000D03*
X121300000Y-93100000D03*
X121300000Y-95100000D03*
X106100000Y-95100000D03*
X106100000Y-93100000D03*
X106100000Y-91100000D03*
X106100000Y-89100000D03*
X106100000Y-87100000D03*
X106100000Y-85100000D03*
X106100000Y-83100000D03*
X106100000Y-81100000D03*
D24*
X85350000Y-94650000D03*
X85350000Y-95600000D03*
X85350000Y-96550000D03*
X88050000Y-96550000D03*
X88050000Y-94650000D03*
D17*
X133400000Y-104200000D03*
D18*
X133400000Y-101660000D03*
D25*
X98400000Y-108200000D03*
X86800000Y-99800000D03*
X99000000Y-90500000D03*
X99400000Y-82800000D03*
X98400000Y-110600000D03*
D26*
X121300000Y-98900000D02*
X120200000Y-100000000D01*
X121300000Y-95100000D02*
X121300000Y-98900000D01*
X85125000Y-98975000D02*
X85200000Y-99050000D01*
X85125000Y-98400000D02*
X85125000Y-98975000D01*
X85200000Y-99050000D02*
X85200000Y-100200000D01*
X85200000Y-100200000D02*
X86200000Y-101200000D01*
X86200000Y-101200000D02*
X88000000Y-101200000D01*
X88925000Y-100275000D02*
X88925000Y-98400000D01*
X88000000Y-101200000D02*
X88925000Y-100275000D01*
X84150000Y-82500000D02*
X82800000Y-83850000D01*
X85500000Y-82500000D02*
X84150000Y-82500000D01*
X83600000Y-95600000D02*
X85350000Y-95600000D01*
X82800000Y-94800000D02*
X83600000Y-95600000D01*
X85350000Y-95600000D02*
X84070000Y-95600000D01*
X82800000Y-97200000D02*
X84000000Y-98400000D01*
X84000000Y-98400000D02*
X85125000Y-98400000D01*
X82800000Y-94200000D02*
X82800000Y-97200000D01*
X82800000Y-83850000D02*
X82800000Y-94200000D01*
X82800000Y-94200000D02*
X82800000Y-94800000D01*
X120200000Y-107080000D02*
X116480000Y-110800000D01*
X120200000Y-100000000D02*
X120200000Y-107080000D01*
X88925000Y-107900000D02*
X92000000Y-110975000D01*
X88925000Y-98400000D02*
X88925000Y-107900000D01*
X104440332Y-107299999D02*
X106140333Y-109000000D01*
X95675001Y-107299999D02*
X104440332Y-107299999D01*
X92000000Y-110975000D02*
X95675001Y-107299999D01*
X114680000Y-109000000D02*
X116480000Y-110800000D01*
X106140333Y-109000000D02*
X114680000Y-109000000D01*
X86315002Y-94650000D02*
X85350000Y-94650000D01*
X86580001Y-94914999D02*
X86315002Y-94650000D01*
X85350000Y-94650000D02*
X85805000Y-94650000D01*
X101000000Y-108650000D02*
X101000000Y-109500000D01*
X101000000Y-110350000D02*
X101000000Y-109500000D01*
X97850000Y-113500000D02*
X101000000Y-110350000D01*
X96950000Y-113500000D02*
X97850000Y-113500000D01*
X86315002Y-96550000D02*
X86580001Y-96285001D01*
X85350000Y-96550000D02*
X86315002Y-96550000D01*
X86580001Y-96285001D02*
X86580001Y-95580001D01*
X86580001Y-95580001D02*
X86580001Y-94914999D01*
X85275000Y-94725000D02*
X85350000Y-94650000D01*
X86580001Y-97530001D02*
X86580001Y-95580001D01*
X86875000Y-97825000D02*
X86580001Y-97530001D01*
X86875000Y-98400000D02*
X86875000Y-97825000D01*
X86875000Y-99725000D02*
X86800000Y-99800000D01*
X86875000Y-98400000D02*
X86875000Y-99725000D01*
X99700000Y-108200000D02*
X101000000Y-109500000D01*
X98400000Y-108200000D02*
X99700000Y-108200000D01*
X106100000Y-99950000D02*
X106150000Y-100000000D01*
X87595000Y-94650000D02*
X88050000Y-94650000D01*
X106100000Y-95100000D02*
X105350000Y-95100000D01*
X90675000Y-97825000D02*
X90675000Y-98400000D01*
X90675000Y-96820000D02*
X90675000Y-97825000D01*
X88505000Y-94650000D02*
X90675000Y-96820000D01*
X88050000Y-94650000D02*
X88505000Y-94650000D01*
X90675000Y-98975000D02*
X91700000Y-100000000D01*
X90675000Y-98400000D02*
X90675000Y-98975000D01*
X91700000Y-100000000D02*
X106600000Y-100000000D01*
X106600000Y-100000000D02*
X107500000Y-100000000D01*
X106150000Y-100000000D02*
X106600000Y-100000000D01*
X107850000Y-95100000D02*
X108200000Y-95450000D01*
X106100000Y-95100000D02*
X107850000Y-95100000D01*
X107500000Y-98650000D02*
X108200000Y-97950000D01*
X108200000Y-97950000D02*
X108200000Y-95450000D01*
X107500000Y-100000000D02*
X107500000Y-98650000D01*
X122369705Y-60700000D02*
X125570000Y-63900295D01*
X113960000Y-60700000D02*
X122369705Y-60700000D01*
X131830295Y-94500000D02*
X132000000Y-94500000D01*
X124430000Y-101900295D02*
X131830295Y-94500000D01*
X102297208Y-66099705D02*
X103570000Y-66099705D01*
X96729555Y-72970445D02*
X96729555Y-71667358D01*
X96729555Y-71667358D02*
X102297208Y-66099705D01*
X96000000Y-73700000D02*
X96729555Y-72970445D01*
X108969705Y-60700000D02*
X103570000Y-66099705D01*
X113960000Y-60700000D02*
X108969705Y-60700000D01*
X125875000Y-85000000D02*
X130000000Y-85000000D01*
X130000000Y-85000000D02*
X133000000Y-88000000D01*
X133000000Y-93500000D02*
X132000000Y-94500000D01*
X133000000Y-88000000D02*
X133000000Y-93500000D01*
X137240000Y-75440000D02*
X137240000Y-84000000D01*
X134100000Y-72300000D02*
X137240000Y-75440000D01*
X93240000Y-72990295D02*
X93800295Y-72430000D01*
X93240000Y-84000000D02*
X93240000Y-72990295D01*
X102300000Y-63930295D02*
X102300000Y-63900000D01*
X93800295Y-72430000D02*
X102300000Y-63930295D01*
X134100000Y-70432293D02*
X134100000Y-71160770D01*
X123017706Y-59349999D02*
X134100000Y-70432293D01*
X134100000Y-71160770D02*
X134100000Y-72300000D01*
X106850001Y-59349999D02*
X123017706Y-59349999D01*
X102300000Y-63900000D02*
X106850001Y-59349999D01*
X93240000Y-91840000D02*
X96100000Y-94700000D01*
X93240000Y-84000000D02*
X93240000Y-91840000D01*
X98700000Y-92100000D02*
X96100000Y-94700000D01*
X101325000Y-92100000D02*
X98700000Y-92100000D01*
X134030000Y-95770000D02*
X134199705Y-95770000D01*
X125700000Y-104100000D02*
X134030000Y-95770000D01*
X105530295Y-107400000D02*
X102230000Y-104099705D01*
X114000000Y-107400000D02*
X105530295Y-107400000D01*
X94100295Y-95970000D02*
X93900295Y-95970000D01*
X90700000Y-92769705D02*
X93900295Y-95970000D01*
X90700000Y-84000000D02*
X90700000Y-92769705D01*
X94800294Y-96869999D02*
X93900295Y-95970000D01*
X98355001Y-96869999D02*
X94800294Y-96869999D01*
X101125000Y-94100000D02*
X98355001Y-96869999D01*
X121440000Y-63240000D02*
X124300000Y-66100000D01*
X113960000Y-63240000D02*
X121440000Y-63240000D01*
X125439230Y-66100000D02*
X124300000Y-66100000D01*
X125703087Y-66100000D02*
X125439230Y-66100000D01*
X131900295Y-72297208D02*
X125703087Y-66100000D01*
X131900295Y-73570000D02*
X131900295Y-72297208D01*
X134700000Y-76369705D02*
X131900295Y-73570000D01*
X134700000Y-84000000D02*
X134700000Y-76369705D01*
X106460000Y-104860000D02*
X103500000Y-101900000D01*
X114000000Y-104860000D02*
X106460000Y-104860000D01*
X99300000Y-90200000D02*
X99000000Y-90500000D01*
X101325000Y-90200000D02*
X99300000Y-90200000D01*
X102950000Y-87100000D02*
X102000000Y-86150000D01*
X106100000Y-87100000D02*
X102950000Y-87100000D01*
X102800000Y-81100000D02*
X102000000Y-81900000D01*
X102000000Y-81900000D02*
X102000000Y-82850000D01*
X106100000Y-81100000D02*
X102800000Y-81100000D01*
X110040000Y-84290000D02*
X110040000Y-98797919D01*
X106850000Y-81100000D02*
X110040000Y-84290000D01*
X110040000Y-98797919D02*
X110040000Y-100000000D01*
X106100000Y-81100000D02*
X106850000Y-81100000D01*
X99450000Y-82850000D02*
X99400000Y-82800000D01*
X102000000Y-82850000D02*
X99450000Y-82850000D01*
X94575000Y-113025000D02*
X95050000Y-113500000D01*
X92000000Y-113025000D02*
X94575000Y-113025000D01*
X101000000Y-115350000D02*
X101000000Y-114500000D01*
X97750000Y-116750000D02*
X99600000Y-116750000D01*
X99600000Y-116750000D02*
X101000000Y-115350000D01*
X95050000Y-114050000D02*
X97750000Y-116750000D01*
X95050000Y-113500000D02*
X95050000Y-114050000D01*
X110050000Y-110800000D02*
X111400000Y-110800000D01*
X101000000Y-113650000D02*
X103850000Y-110800000D01*
X103850000Y-110800000D02*
X110050000Y-110800000D01*
X101000000Y-114500000D02*
X101000000Y-113650000D01*
X117660000Y-91990000D02*
X117660000Y-98797919D01*
X117660000Y-98797919D02*
X117660000Y-100000000D01*
X120550000Y-89100000D02*
X117660000Y-91990000D01*
X121300000Y-89100000D02*
X120550000Y-89100000D01*
X115120000Y-98797919D02*
X115120000Y-100000000D01*
X115120000Y-88530000D02*
X115120000Y-98797919D01*
X120550000Y-83100000D02*
X115120000Y-88530000D01*
X121300000Y-83100000D02*
X120550000Y-83100000D01*
X112580000Y-88070000D02*
X112580000Y-100000000D01*
X119550000Y-81100000D02*
X112580000Y-88070000D01*
X121300000Y-81100000D02*
X119550000Y-81100000D01*
X98300000Y-110500000D02*
X98400000Y-110600000D01*
X96000000Y-110500000D02*
X98300000Y-110500000D01*
X121400000Y-85000000D02*
X121300000Y-85100000D01*
X124125000Y-85000000D02*
X121400000Y-85000000D01*
X104075000Y-91100000D02*
X103075000Y-92100000D01*
X106100000Y-91100000D02*
X104075000Y-91100000D01*
X103875000Y-93100000D02*
X102875000Y-94100000D01*
X106100000Y-93100000D02*
X103875000Y-93100000D01*
X104175000Y-89100000D02*
X103075000Y-90200000D01*
X106100000Y-89100000D02*
X104175000Y-89100000D01*
X136800000Y-104200000D02*
X137400000Y-103600000D01*
X137000000Y-104200000D02*
X137400000Y-103800000D01*
X133400000Y-104200000D02*
X137000000Y-104200000D01*
X137340000Y-101660000D02*
X137400000Y-101600000D01*
X137260000Y-101660000D02*
X137400000Y-101800000D01*
X133400000Y-101660000D02*
X137260000Y-101660000D01*
M02*
