G04 #@! TF.GenerationSoftware,KiCad,Pcbnew,(5.1.4-0)*
G04 #@! TF.CreationDate,2022-04-01T12:31:45+08:00*
G04 #@! TF.ProjectId,esp8266_ntp_clock,65737038-3236-4365-9f6e-74705f636c6f,v1.0*
G04 #@! TF.SameCoordinates,Original*
G04 #@! TF.FileFunction,Legend,Top*
G04 #@! TF.FilePolarity,Positive*
%FSLAX46Y46*%
G04 Gerber Fmt 4.6, Leading zero omitted, Abs format (unit mm)*
G04 Created by KiCad (PCBNEW (5.1.4-0)) date 2022-04-01 12:31:45*
%MOMM*%
%LPD*%
G04 APERTURE LIST*
%ADD10C,0.150000*%
%ADD11C,0.120000*%
G04 APERTURE END LIST*
D10*
X119238095Y-110500000D02*
X119142857Y-110452380D01*
X119000000Y-110452380D01*
X118857142Y-110500000D01*
X118761904Y-110595238D01*
X118714285Y-110690476D01*
X118666666Y-110880952D01*
X118666666Y-111023809D01*
X118714285Y-111214285D01*
X118761904Y-111309523D01*
X118857142Y-111404761D01*
X119000000Y-111452380D01*
X119095238Y-111452380D01*
X119238095Y-111404761D01*
X119285714Y-111357142D01*
X119285714Y-111023809D01*
X119095238Y-111023809D01*
X119714285Y-111452380D02*
X119714285Y-110452380D01*
X120285714Y-111452380D01*
X120285714Y-110452380D01*
X120761904Y-111452380D02*
X120761904Y-110452380D01*
X121000000Y-110452380D01*
X121142857Y-110500000D01*
X121238095Y-110595238D01*
X121285714Y-110690476D01*
X121333333Y-110880952D01*
X121333333Y-111023809D01*
X121285714Y-111214285D01*
X121238095Y-111309523D01*
X121142857Y-111404761D01*
X121000000Y-111452380D01*
X120761904Y-111452380D01*
X105666666Y-110452380D02*
X106000000Y-111452380D01*
X106333333Y-110452380D01*
X107000000Y-110928571D02*
X107142857Y-110976190D01*
X107190476Y-111023809D01*
X107238095Y-111119047D01*
X107238095Y-111261904D01*
X107190476Y-111357142D01*
X107142857Y-111404761D01*
X107047619Y-111452380D01*
X106666666Y-111452380D01*
X106666666Y-110452380D01*
X107000000Y-110452380D01*
X107095238Y-110500000D01*
X107142857Y-110547619D01*
X107190476Y-110642857D01*
X107190476Y-110738095D01*
X107142857Y-110833333D01*
X107095238Y-110880952D01*
X107000000Y-110928571D01*
X106666666Y-110928571D01*
X107666666Y-110452380D02*
X107666666Y-111261904D01*
X107714285Y-111357142D01*
X107761904Y-111404761D01*
X107857142Y-111452380D01*
X108047619Y-111452380D01*
X108142857Y-111404761D01*
X108190476Y-111357142D01*
X108238095Y-111261904D01*
X108238095Y-110452380D01*
X108666666Y-111404761D02*
X108809523Y-111452380D01*
X109047619Y-111452380D01*
X109142857Y-111404761D01*
X109190476Y-111357142D01*
X109238095Y-111261904D01*
X109238095Y-111166666D01*
X109190476Y-111071428D01*
X109142857Y-111023809D01*
X109047619Y-110976190D01*
X108857142Y-110928571D01*
X108761904Y-110880952D01*
X108714285Y-110833333D01*
X108666666Y-110738095D01*
X108666666Y-110642857D01*
X108714285Y-110547619D01*
X108761904Y-110500000D01*
X108857142Y-110452380D01*
X109095238Y-110452380D01*
X109238095Y-110500000D01*
X84147619Y-77352380D02*
X83814285Y-76876190D01*
X83576190Y-77352380D02*
X83576190Y-76352380D01*
X83957142Y-76352380D01*
X84052380Y-76400000D01*
X84100000Y-76447619D01*
X84147619Y-76542857D01*
X84147619Y-76685714D01*
X84100000Y-76780952D01*
X84052380Y-76828571D01*
X83957142Y-76876190D01*
X83576190Y-76876190D01*
X84576190Y-76828571D02*
X84909523Y-76828571D01*
X85052380Y-77352380D02*
X84576190Y-77352380D01*
X84576190Y-76352380D01*
X85052380Y-76352380D01*
X85433333Y-77304761D02*
X85576190Y-77352380D01*
X85814285Y-77352380D01*
X85909523Y-77304761D01*
X85957142Y-77257142D01*
X86004761Y-77161904D01*
X86004761Y-77066666D01*
X85957142Y-76971428D01*
X85909523Y-76923809D01*
X85814285Y-76876190D01*
X85623809Y-76828571D01*
X85528571Y-76780952D01*
X85480952Y-76733333D01*
X85433333Y-76638095D01*
X85433333Y-76542857D01*
X85480952Y-76447619D01*
X85528571Y-76400000D01*
X85623809Y-76352380D01*
X85861904Y-76352380D01*
X86004761Y-76400000D01*
X86433333Y-76828571D02*
X86766666Y-76828571D01*
X86909523Y-77352380D02*
X86433333Y-77352380D01*
X86433333Y-76352380D01*
X86909523Y-76352380D01*
X87195238Y-76352380D02*
X87766666Y-76352380D01*
X87480952Y-77352380D02*
X87480952Y-76352380D01*
X130452380Y-101628571D02*
X130595238Y-101676190D01*
X130642857Y-101723809D01*
X130690476Y-101819047D01*
X130690476Y-101961904D01*
X130642857Y-102057142D01*
X130595238Y-102104761D01*
X130500000Y-102152380D01*
X130119047Y-102152380D01*
X130119047Y-101152380D01*
X130452380Y-101152380D01*
X130547619Y-101200000D01*
X130595238Y-101247619D01*
X130642857Y-101342857D01*
X130642857Y-101438095D01*
X130595238Y-101533333D01*
X130547619Y-101580952D01*
X130452380Y-101628571D01*
X130119047Y-101628571D01*
X131119047Y-101771428D02*
X131880952Y-101771428D01*
X130452380Y-104028571D02*
X130595238Y-104076190D01*
X130642857Y-104123809D01*
X130690476Y-104219047D01*
X130690476Y-104361904D01*
X130642857Y-104457142D01*
X130595238Y-104504761D01*
X130500000Y-104552380D01*
X130119047Y-104552380D01*
X130119047Y-103552380D01*
X130452380Y-103552380D01*
X130547619Y-103600000D01*
X130595238Y-103647619D01*
X130642857Y-103742857D01*
X130642857Y-103838095D01*
X130595238Y-103933333D01*
X130547619Y-103980952D01*
X130452380Y-104028571D01*
X130119047Y-104028571D01*
X131119047Y-104171428D02*
X131880952Y-104171428D01*
X131500000Y-104552380D02*
X131500000Y-103790476D01*
X119700000Y-103661904D02*
X119652380Y-103757142D01*
X119652380Y-103900000D01*
X119700000Y-104042857D01*
X119795238Y-104138095D01*
X119890476Y-104185714D01*
X120080952Y-104233333D01*
X120223809Y-104233333D01*
X120414285Y-104185714D01*
X120509523Y-104138095D01*
X120604761Y-104042857D01*
X120652380Y-103900000D01*
X120652380Y-103804761D01*
X120604761Y-103661904D01*
X120557142Y-103614285D01*
X120223809Y-103614285D01*
X120223809Y-103804761D01*
X120652380Y-103185714D02*
X119652380Y-103185714D01*
X120652380Y-102614285D01*
X119652380Y-102614285D01*
X120652380Y-102138095D02*
X119652380Y-102138095D01*
X119652380Y-101900000D01*
X119700000Y-101757142D01*
X119795238Y-101661904D01*
X119890476Y-101614285D01*
X120080952Y-101566666D01*
X120223809Y-101566666D01*
X120414285Y-101614285D01*
X120509523Y-101661904D01*
X120604761Y-101757142D01*
X120652380Y-101900000D01*
X120652380Y-102138095D01*
X117200000Y-105076190D02*
X117152380Y-105171428D01*
X117152380Y-105314285D01*
X117200000Y-105457142D01*
X117295238Y-105552380D01*
X117390476Y-105600000D01*
X117580952Y-105647619D01*
X117723809Y-105647619D01*
X117914285Y-105600000D01*
X118009523Y-105552380D01*
X118104761Y-105457142D01*
X118152380Y-105314285D01*
X118152380Y-105219047D01*
X118104761Y-105076190D01*
X118057142Y-105028571D01*
X117723809Y-105028571D01*
X117723809Y-105219047D01*
X118152380Y-104600000D02*
X117152380Y-104600000D01*
X117152380Y-104219047D01*
X117200000Y-104123809D01*
X117247619Y-104076190D01*
X117342857Y-104028571D01*
X117485714Y-104028571D01*
X117580952Y-104076190D01*
X117628571Y-104123809D01*
X117676190Y-104219047D01*
X117676190Y-104600000D01*
X118152380Y-103600000D02*
X117152380Y-103600000D01*
X117152380Y-102933333D02*
X117152380Y-102742857D01*
X117200000Y-102647619D01*
X117295238Y-102552380D01*
X117485714Y-102504761D01*
X117819047Y-102504761D01*
X118009523Y-102552380D01*
X118104761Y-102647619D01*
X118152380Y-102742857D01*
X118152380Y-102933333D01*
X118104761Y-103028571D01*
X118009523Y-103123809D01*
X117819047Y-103171428D01*
X117485714Y-103171428D01*
X117295238Y-103123809D01*
X117200000Y-103028571D01*
X117152380Y-102933333D01*
X117152380Y-101885714D02*
X117152380Y-101790476D01*
X117200000Y-101695238D01*
X117247619Y-101647619D01*
X117342857Y-101600000D01*
X117533333Y-101552380D01*
X117771428Y-101552380D01*
X117961904Y-101600000D01*
X118057142Y-101647619D01*
X118104761Y-101695238D01*
X118152380Y-101790476D01*
X118152380Y-101885714D01*
X118104761Y-101980952D01*
X118057142Y-102028571D01*
X117961904Y-102076190D01*
X117771428Y-102123809D01*
X117533333Y-102123809D01*
X117342857Y-102076190D01*
X117247619Y-102028571D01*
X117200000Y-101980952D01*
X117152380Y-101885714D01*
X115552380Y-103466666D02*
X115076190Y-103800000D01*
X115552380Y-104038095D02*
X114552380Y-104038095D01*
X114552380Y-103657142D01*
X114600000Y-103561904D01*
X114647619Y-103514285D01*
X114742857Y-103466666D01*
X114885714Y-103466666D01*
X114980952Y-103514285D01*
X115028571Y-103561904D01*
X115076190Y-103657142D01*
X115076190Y-104038095D01*
X114552380Y-103133333D02*
X115552380Y-102466666D01*
X114552380Y-102466666D02*
X115552380Y-103133333D01*
X115552380Y-102085714D02*
X114552380Y-102085714D01*
X114552380Y-101847619D01*
X114600000Y-101704761D01*
X114695238Y-101609523D01*
X114790476Y-101561904D01*
X114980952Y-101514285D01*
X115123809Y-101514285D01*
X115314285Y-101561904D01*
X115409523Y-101609523D01*
X115504761Y-101704761D01*
X115552380Y-101847619D01*
X115552380Y-102085714D01*
X112052380Y-103961904D02*
X112052380Y-103390476D01*
X113052380Y-103676190D02*
X112052380Y-103676190D01*
X112052380Y-103152380D02*
X113052380Y-102485714D01*
X112052380Y-102485714D02*
X113052380Y-103152380D01*
X113052380Y-102104761D02*
X112052380Y-102104761D01*
X112052380Y-101866666D01*
X112100000Y-101723809D01*
X112195238Y-101628571D01*
X112290476Y-101580952D01*
X112480952Y-101533333D01*
X112623809Y-101533333D01*
X112814285Y-101580952D01*
X112909523Y-101628571D01*
X113004761Y-101723809D01*
X113052380Y-101866666D01*
X113052380Y-102104761D01*
X110552380Y-103347619D02*
X110076190Y-103680952D01*
X110552380Y-103919047D02*
X109552380Y-103919047D01*
X109552380Y-103538095D01*
X109600000Y-103442857D01*
X109647619Y-103395238D01*
X109742857Y-103347619D01*
X109885714Y-103347619D01*
X109980952Y-103395238D01*
X110028571Y-103442857D01*
X110076190Y-103538095D01*
X110076190Y-103919047D01*
X110504761Y-102966666D02*
X110552380Y-102823809D01*
X110552380Y-102585714D01*
X110504761Y-102490476D01*
X110457142Y-102442857D01*
X110361904Y-102395238D01*
X110266666Y-102395238D01*
X110171428Y-102442857D01*
X110123809Y-102490476D01*
X110076190Y-102585714D01*
X110028571Y-102776190D01*
X109980952Y-102871428D01*
X109933333Y-102919047D01*
X109838095Y-102966666D01*
X109742857Y-102966666D01*
X109647619Y-102919047D01*
X109600000Y-102871428D01*
X109552380Y-102776190D01*
X109552380Y-102538095D01*
X109600000Y-102395238D01*
X109552380Y-102109523D02*
X109552380Y-101538095D01*
X110552380Y-101823809D02*
X109552380Y-101823809D01*
X106852380Y-104576190D02*
X106852380Y-103957142D01*
X107233333Y-104290476D01*
X107233333Y-104147619D01*
X107280952Y-104052380D01*
X107328571Y-104004761D01*
X107423809Y-103957142D01*
X107661904Y-103957142D01*
X107757142Y-104004761D01*
X107804761Y-104052380D01*
X107852380Y-104147619D01*
X107852380Y-104433333D01*
X107804761Y-104528571D01*
X107757142Y-104576190D01*
X107757142Y-103528571D02*
X107804761Y-103480952D01*
X107852380Y-103528571D01*
X107804761Y-103576190D01*
X107757142Y-103528571D01*
X107852380Y-103528571D01*
X106852380Y-103147619D02*
X106852380Y-102528571D01*
X107233333Y-102861904D01*
X107233333Y-102719047D01*
X107280952Y-102623809D01*
X107328571Y-102576190D01*
X107423809Y-102528571D01*
X107661904Y-102528571D01*
X107757142Y-102576190D01*
X107804761Y-102623809D01*
X107852380Y-102719047D01*
X107852380Y-103004761D01*
X107804761Y-103100000D01*
X107757142Y-103147619D01*
X106852380Y-102242857D02*
X107852380Y-101909523D01*
X106852380Y-101576190D01*
D11*
X86171267Y-97890000D02*
X85828733Y-97890000D01*
X86171267Y-98910000D02*
X85828733Y-98910000D01*
X89971267Y-98910000D02*
X89628733Y-98910000D01*
X89971267Y-97890000D02*
X89628733Y-97890000D01*
X101000000Y-86750000D02*
X103000000Y-86750000D01*
X103000000Y-86750000D02*
X103000000Y-82850000D01*
X101000000Y-86750000D02*
X101000000Y-82850000D01*
X102650000Y-107600000D02*
X99350000Y-107600000D01*
X99350000Y-107600000D02*
X99350000Y-114500000D01*
X102650000Y-107600000D02*
X102650000Y-114500000D01*
X86830000Y-78630000D02*
X84170000Y-78630000D01*
X86830000Y-81230000D02*
X86830000Y-78630000D01*
X84170000Y-81230000D02*
X84170000Y-78630000D01*
X86830000Y-81230000D02*
X84170000Y-81230000D01*
X86830000Y-82500000D02*
X86830000Y-83830000D01*
X86830000Y-83830000D02*
X85500000Y-83830000D01*
X121530000Y-101330000D02*
X121530000Y-98670000D01*
X108770000Y-101330000D02*
X121530000Y-101330000D01*
X108770000Y-98670000D02*
X121530000Y-98670000D01*
X108770000Y-101330000D02*
X108770000Y-98670000D01*
X107500000Y-101330000D02*
X106170000Y-101330000D01*
X106170000Y-101330000D02*
X106170000Y-100000000D01*
X117810000Y-112130000D02*
X117810000Y-109470000D01*
X112670000Y-112130000D02*
X117810000Y-112130000D01*
X112670000Y-109470000D02*
X117810000Y-109470000D01*
X112670000Y-112130000D02*
X112670000Y-109470000D01*
X111400000Y-112130000D02*
X110070000Y-112130000D01*
X110070000Y-112130000D02*
X110070000Y-110800000D01*
X137540000Y-104660000D02*
X137540000Y-104940000D01*
X137540000Y-104940000D02*
X135940000Y-104940000D01*
X135940000Y-104940000D02*
X135940000Y-105860000D01*
X135940000Y-105860000D02*
X143760000Y-105860000D01*
X143760000Y-105860000D02*
X143760000Y-99740000D01*
X143760000Y-99740000D02*
X135940000Y-99740000D01*
X135940000Y-99740000D02*
X135940000Y-100660000D01*
X135940000Y-100660000D02*
X137540000Y-100660000D01*
X137540000Y-100660000D02*
X137540000Y-100940000D01*
X143760000Y-103300000D02*
X139400000Y-103300000D01*
X139400000Y-103300000D02*
X139400000Y-102300000D01*
X139400000Y-102300000D02*
X143760000Y-102300000D01*
X137540000Y-105860000D02*
X137540000Y-104940000D01*
X137540000Y-99740000D02*
X137540000Y-100660000D01*
X139900000Y-105100000D02*
X141500000Y-105100000D01*
X141500000Y-105100000D02*
X141500000Y-104100000D01*
X141500000Y-104100000D02*
X139900000Y-104100000D01*
X139900000Y-104100000D02*
X139900000Y-105100000D01*
X139900000Y-100500000D02*
X141500000Y-100500000D01*
X141500000Y-100500000D02*
X141500000Y-101500000D01*
X141500000Y-101500000D02*
X139900000Y-101500000D01*
X139900000Y-101500000D02*
X139900000Y-100500000D01*
X141500000Y-104100000D02*
X143760000Y-104100000D01*
X141500000Y-104600000D02*
X143760000Y-104600000D01*
X137540000Y-104660000D02*
X136325000Y-104660000D01*
X97580000Y-111240000D02*
X96650000Y-111240000D01*
X94420000Y-111240000D02*
X95350000Y-111240000D01*
X94420000Y-111240000D02*
X94420000Y-114400000D01*
X97580000Y-111240000D02*
X97580000Y-112700000D01*
X125171267Y-85510000D02*
X124828733Y-85510000D01*
X125171267Y-84490000D02*
X124828733Y-84490000D01*
X102028733Y-92610000D02*
X102371267Y-92610000D01*
X102028733Y-91590000D02*
X102371267Y-91590000D01*
X101828733Y-93590000D02*
X102171267Y-93590000D01*
X101828733Y-94610000D02*
X102171267Y-94610000D01*
X102028733Y-90710000D02*
X102371267Y-90710000D01*
X102028733Y-89690000D02*
X102371267Y-89690000D01*
X91290000Y-112261252D02*
X91290000Y-111738748D01*
X92710000Y-112261252D02*
X92710000Y-111738748D01*
X105580000Y-80100000D02*
X104970000Y-80100000D01*
X105580000Y-80100000D02*
X105580000Y-72480000D01*
X105580000Y-96720000D02*
X105580000Y-96100000D01*
X107700000Y-96720000D02*
X105580000Y-96720000D01*
X121820000Y-96720000D02*
X119700000Y-96720000D01*
X121820000Y-96100000D02*
X121820000Y-96720000D01*
X121820000Y-72480000D02*
X121820000Y-80100000D01*
X105580000Y-72480000D02*
X121820000Y-72480000D01*
X85800000Y-97210000D02*
X87600000Y-97210000D01*
X87600000Y-93990000D02*
X85150000Y-93990000D01*
X134730000Y-100330000D02*
X132070000Y-100330000D01*
X134730000Y-102930000D02*
X134730000Y-100330000D01*
X132070000Y-102930000D02*
X132070000Y-100330000D01*
X134730000Y-102930000D02*
X132070000Y-102930000D01*
X134730000Y-104200000D02*
X134730000Y-105530000D01*
X134730000Y-105530000D02*
X133400000Y-105530000D01*
D10*
X85133333Y-100357142D02*
X85085714Y-100404761D01*
X84942857Y-100452380D01*
X84847619Y-100452380D01*
X84704761Y-100404761D01*
X84609523Y-100309523D01*
X84561904Y-100214285D01*
X84514285Y-100023809D01*
X84514285Y-99880952D01*
X84561904Y-99690476D01*
X84609523Y-99595238D01*
X84704761Y-99500000D01*
X84847619Y-99452380D01*
X84942857Y-99452380D01*
X85085714Y-99500000D01*
X85133333Y-99547619D01*
X85514285Y-99547619D02*
X85561904Y-99500000D01*
X85657142Y-99452380D01*
X85895238Y-99452380D01*
X85990476Y-99500000D01*
X86038095Y-99547619D01*
X86085714Y-99642857D01*
X86085714Y-99738095D01*
X86038095Y-99880952D01*
X85466666Y-100452380D01*
X86085714Y-100452380D01*
X89633333Y-100457142D02*
X89585714Y-100504761D01*
X89442857Y-100552380D01*
X89347619Y-100552380D01*
X89204761Y-100504761D01*
X89109523Y-100409523D01*
X89061904Y-100314285D01*
X89014285Y-100123809D01*
X89014285Y-99980952D01*
X89061904Y-99790476D01*
X89109523Y-99695238D01*
X89204761Y-99600000D01*
X89347619Y-99552380D01*
X89442857Y-99552380D01*
X89585714Y-99600000D01*
X89633333Y-99647619D01*
X89966666Y-99552380D02*
X90585714Y-99552380D01*
X90252380Y-99933333D01*
X90395238Y-99933333D01*
X90490476Y-99980952D01*
X90538095Y-100028571D01*
X90585714Y-100123809D01*
X90585714Y-100361904D01*
X90538095Y-100457142D01*
X90490476Y-100504761D01*
X90395238Y-100552380D01*
X90109523Y-100552380D01*
X90014285Y-100504761D01*
X89966666Y-100457142D01*
X99610743Y-66066833D02*
X100476769Y-65566833D01*
X100595817Y-65773029D01*
X100626006Y-65920557D01*
X100591146Y-66050654D01*
X100532477Y-66139513D01*
X100391329Y-66275990D01*
X100267612Y-66347419D01*
X100078845Y-66401417D01*
X99972557Y-66407797D01*
X99842459Y-66372938D01*
X99729791Y-66273029D01*
X99610743Y-66066833D01*
X100372648Y-67386491D02*
X100086934Y-66891619D01*
X100229791Y-67139055D02*
X101095817Y-66639055D01*
X100924480Y-66628005D01*
X100794382Y-66593145D01*
X100705524Y-66534476D01*
X95514748Y-70524290D02*
X96014748Y-69658265D01*
X96220944Y-69777312D01*
X96320853Y-69889980D01*
X96355712Y-70020078D01*
X96349333Y-70126366D01*
X96295334Y-70315133D01*
X96223905Y-70438851D01*
X96087428Y-70579999D01*
X95998569Y-70638668D01*
X95868472Y-70673527D01*
X95720944Y-70643338D01*
X95514748Y-70524290D01*
X96791915Y-70216934D02*
X96856964Y-70199504D01*
X96963252Y-70205884D01*
X97169448Y-70324932D01*
X97228117Y-70413790D01*
X97245547Y-70478839D01*
X97239167Y-70585127D01*
X97191548Y-70667605D01*
X97078881Y-70767514D01*
X96298295Y-70976671D01*
X96834406Y-71286195D01*
X91231904Y-87412380D02*
X91231904Y-86412380D01*
X91470000Y-86412380D01*
X91612857Y-86460000D01*
X91708095Y-86555238D01*
X91755714Y-86650476D01*
X91803333Y-86840952D01*
X91803333Y-86983809D01*
X91755714Y-87174285D01*
X91708095Y-87269523D01*
X91612857Y-87364761D01*
X91470000Y-87412380D01*
X91231904Y-87412380D01*
X92136666Y-86412380D02*
X92755714Y-86412380D01*
X92422380Y-86793333D01*
X92565238Y-86793333D01*
X92660476Y-86840952D01*
X92708095Y-86888571D01*
X92755714Y-86983809D01*
X92755714Y-87221904D01*
X92708095Y-87317142D01*
X92660476Y-87364761D01*
X92565238Y-87412380D01*
X92279523Y-87412380D01*
X92184285Y-87364761D01*
X92136666Y-87317142D01*
X93107129Y-93532386D02*
X92607129Y-92666360D01*
X92813325Y-92547312D01*
X92960853Y-92517123D01*
X93090950Y-92551983D01*
X93179809Y-92610652D01*
X93316286Y-92751800D01*
X93387715Y-92875517D01*
X93441713Y-93064284D01*
X93448093Y-93170572D01*
X93413234Y-93300670D01*
X93313325Y-93413338D01*
X93107129Y-93532386D01*
X94010975Y-92240750D02*
X94344308Y-92818100D01*
X93614302Y-92029883D02*
X93765248Y-92767520D01*
X94301359Y-92457996D01*
X100324290Y-102385251D02*
X99458265Y-101885251D01*
X99577312Y-101679055D01*
X99689980Y-101579146D01*
X99820078Y-101544287D01*
X99926366Y-101550666D01*
X100115133Y-101604665D01*
X100238851Y-101676094D01*
X100379999Y-101812571D01*
X100438668Y-101901430D01*
X100473527Y-102031527D01*
X100443338Y-102179055D01*
X100324290Y-102385251D01*
X100196360Y-100606833D02*
X99958265Y-101019226D01*
X100346848Y-101298560D01*
X100329419Y-101233512D01*
X100335798Y-101127223D01*
X100454846Y-100921027D01*
X100543704Y-100862358D01*
X100608753Y-100844928D01*
X100715041Y-100851308D01*
X100921238Y-100970355D01*
X100979907Y-101059214D01*
X100997337Y-101124263D01*
X100990957Y-101230551D01*
X100871909Y-101436747D01*
X100783051Y-101495416D01*
X100718002Y-101512846D01*
X111652380Y-106938095D02*
X110652380Y-106938095D01*
X110652380Y-106700000D01*
X110700000Y-106557142D01*
X110795238Y-106461904D01*
X110890476Y-106414285D01*
X111080952Y-106366666D01*
X111223809Y-106366666D01*
X111414285Y-106414285D01*
X111509523Y-106461904D01*
X111604761Y-106557142D01*
X111652380Y-106700000D01*
X111652380Y-106938095D01*
X110652380Y-105509523D02*
X110652380Y-105700000D01*
X110700000Y-105795238D01*
X110747619Y-105842857D01*
X110890476Y-105938095D01*
X111080952Y-105985714D01*
X111461904Y-105985714D01*
X111557142Y-105938095D01*
X111604761Y-105890476D01*
X111652380Y-105795238D01*
X111652380Y-105604761D01*
X111604761Y-105509523D01*
X111557142Y-105461904D01*
X111461904Y-105414285D01*
X111223809Y-105414285D01*
X111128571Y-105461904D01*
X111080952Y-105509523D01*
X111033333Y-105604761D01*
X111033333Y-105795238D01*
X111080952Y-105890476D01*
X111128571Y-105938095D01*
X111223809Y-105985714D01*
X126867613Y-101107129D02*
X127733639Y-100607129D01*
X127852687Y-100813325D01*
X127882876Y-100960853D01*
X127848016Y-101090950D01*
X127789347Y-101179809D01*
X127648199Y-101316286D01*
X127524482Y-101387715D01*
X127335715Y-101441713D01*
X127229427Y-101448093D01*
X127099329Y-101413234D01*
X126986661Y-101313325D01*
X126867613Y-101107129D01*
X128186020Y-101390676D02*
X128519353Y-101968026D01*
X127439042Y-102096872D01*
X130754452Y-97721160D02*
X131254452Y-96855135D01*
X131460648Y-96974182D01*
X131560557Y-97086850D01*
X131595416Y-97216948D01*
X131589037Y-97323236D01*
X131535038Y-97512003D01*
X131463609Y-97635721D01*
X131327132Y-97776869D01*
X131238273Y-97835538D01*
X131108176Y-97870397D01*
X130960648Y-97840208D01*
X130754452Y-97721160D01*
X132029909Y-97797717D02*
X131971240Y-97708859D01*
X131953811Y-97643810D01*
X131960190Y-97537522D01*
X131984000Y-97496283D01*
X132072858Y-97437613D01*
X132137907Y-97420184D01*
X132244195Y-97426563D01*
X132409152Y-97521802D01*
X132467821Y-97610660D01*
X132485251Y-97675709D01*
X132478871Y-97781997D01*
X132455062Y-97823236D01*
X132366204Y-97881905D01*
X132301155Y-97899335D01*
X132194867Y-97892955D01*
X132029909Y-97797717D01*
X131923621Y-97791337D01*
X131858572Y-97808767D01*
X131769714Y-97867436D01*
X131674476Y-98032394D01*
X131668096Y-98138682D01*
X131685526Y-98203730D01*
X131744195Y-98292589D01*
X131909152Y-98387827D01*
X132015440Y-98394207D01*
X132080489Y-98376777D01*
X132169348Y-98318108D01*
X132264586Y-98153151D01*
X132270965Y-98046862D01*
X132253536Y-97981814D01*
X132194867Y-97892955D01*
X135231904Y-87412380D02*
X135231904Y-86412380D01*
X135470000Y-86412380D01*
X135612857Y-86460000D01*
X135708095Y-86555238D01*
X135755714Y-86650476D01*
X135803333Y-86840952D01*
X135803333Y-86983809D01*
X135755714Y-87174285D01*
X135708095Y-87269523D01*
X135612857Y-87364761D01*
X135470000Y-87412380D01*
X135231904Y-87412380D01*
X136279523Y-87412380D02*
X136470000Y-87412380D01*
X136565238Y-87364761D01*
X136612857Y-87317142D01*
X136708095Y-87174285D01*
X136755714Y-86983809D01*
X136755714Y-86602857D01*
X136708095Y-86507619D01*
X136660476Y-86460000D01*
X136565238Y-86412380D01*
X136374761Y-86412380D01*
X136279523Y-86460000D01*
X136231904Y-86507619D01*
X136184285Y-86602857D01*
X136184285Y-86840952D01*
X136231904Y-86936190D01*
X136279523Y-86983809D01*
X136374761Y-87031428D01*
X136565238Y-87031428D01*
X136660476Y-86983809D01*
X136708095Y-86936190D01*
X136755714Y-86840952D01*
X130694736Y-71370481D02*
X130194736Y-70504455D01*
X130400932Y-70385408D01*
X130548460Y-70355218D01*
X130678557Y-70390078D01*
X130767416Y-70448747D01*
X130903893Y-70589895D01*
X130975322Y-70713613D01*
X131029320Y-70902379D01*
X131035700Y-71008668D01*
X131000841Y-71138765D01*
X130900932Y-71251433D01*
X130694736Y-71370481D01*
X132014393Y-70608576D02*
X131519522Y-70894290D01*
X131766958Y-70751433D02*
X131266958Y-69885408D01*
X131255908Y-70056745D01*
X131221048Y-70186842D01*
X131162379Y-70275701D01*
X132050504Y-69433027D02*
X132132983Y-69385408D01*
X132239271Y-69379028D01*
X132304320Y-69396458D01*
X132393178Y-69455127D01*
X132529656Y-69596275D01*
X132648703Y-69802471D01*
X132702702Y-69991238D01*
X132709082Y-70097526D01*
X132691652Y-70162575D01*
X132632983Y-70251433D01*
X132550504Y-70299052D01*
X132444216Y-70305432D01*
X132379167Y-70288002D01*
X132290309Y-70229333D01*
X132153832Y-70088185D01*
X132034784Y-69881989D01*
X131980785Y-69693222D01*
X131974406Y-69586934D01*
X131991835Y-69521885D01*
X132050504Y-69433027D01*
X127283065Y-67757940D02*
X126417040Y-67257940D01*
X126536087Y-67051744D01*
X126648755Y-66951835D01*
X126778853Y-66916976D01*
X126885141Y-66923356D01*
X127073908Y-66977354D01*
X127197626Y-67048783D01*
X127338773Y-67185260D01*
X127397442Y-67274119D01*
X127432302Y-67404216D01*
X127402113Y-67551744D01*
X127283065Y-67757940D01*
X128044970Y-66438282D02*
X127759256Y-66933154D01*
X127902113Y-66685718D02*
X127036087Y-66185718D01*
X127112186Y-66339626D01*
X127147046Y-66469723D01*
X127140666Y-66576011D01*
X128521160Y-65613496D02*
X128235446Y-66108368D01*
X128378303Y-65860932D02*
X127512278Y-65360932D01*
X127588377Y-65514839D01*
X127623236Y-65644937D01*
X127616856Y-65751225D01*
X111452380Y-63184285D02*
X110452380Y-63184285D01*
X110452380Y-62946190D01*
X110500000Y-62803333D01*
X110595238Y-62708095D01*
X110690476Y-62660476D01*
X110880952Y-62612857D01*
X111023809Y-62612857D01*
X111214285Y-62660476D01*
X111309523Y-62708095D01*
X111404761Y-62803333D01*
X111452380Y-62946190D01*
X111452380Y-63184285D01*
X111452380Y-61660476D02*
X111452380Y-62231904D01*
X111452380Y-61946190D02*
X110452380Y-61946190D01*
X110595238Y-62041428D01*
X110690476Y-62136666D01*
X110738095Y-62231904D01*
X110547619Y-61279523D02*
X110500000Y-61231904D01*
X110452380Y-61136666D01*
X110452380Y-60898571D01*
X110500000Y-60803333D01*
X110547619Y-60755714D01*
X110642857Y-60708095D01*
X110738095Y-60708095D01*
X110880952Y-60755714D01*
X111452380Y-61327142D01*
X111452380Y-60708095D01*
X100452380Y-85714285D02*
X99452380Y-85714285D01*
X99452380Y-85476190D01*
X99500000Y-85333333D01*
X99595238Y-85238095D01*
X99690476Y-85190476D01*
X99880952Y-85142857D01*
X100023809Y-85142857D01*
X100214285Y-85190476D01*
X100309523Y-85238095D01*
X100404761Y-85333333D01*
X100452380Y-85476190D01*
X100452380Y-85714285D01*
X100452380Y-84190476D02*
X100452380Y-84761904D01*
X100452380Y-84476190D02*
X99452380Y-84476190D01*
X99595238Y-84571428D01*
X99690476Y-84666666D01*
X99738095Y-84761904D01*
X99452380Y-83857142D02*
X99452380Y-83238095D01*
X99833333Y-83571428D01*
X99833333Y-83428571D01*
X99880952Y-83333333D01*
X99928571Y-83285714D01*
X100023809Y-83238095D01*
X100261904Y-83238095D01*
X100357142Y-83285714D01*
X100404761Y-83333333D01*
X100452380Y-83428571D01*
X100452380Y-83714285D01*
X100404761Y-83809523D01*
X100357142Y-83857142D01*
X99785714Y-107052380D02*
X99785714Y-106052380D01*
X100023809Y-106052380D01*
X100166666Y-106100000D01*
X100261904Y-106195238D01*
X100309523Y-106290476D01*
X100357142Y-106480952D01*
X100357142Y-106623809D01*
X100309523Y-106814285D01*
X100261904Y-106909523D01*
X100166666Y-107004761D01*
X100023809Y-107052380D01*
X99785714Y-107052380D01*
X101309523Y-107052380D02*
X100738095Y-107052380D01*
X101023809Y-107052380D02*
X101023809Y-106052380D01*
X100928571Y-106195238D01*
X100833333Y-106290476D01*
X100738095Y-106338095D01*
X102166666Y-106385714D02*
X102166666Y-107052380D01*
X101928571Y-106004761D02*
X101690476Y-106719047D01*
X102309523Y-106719047D01*
X85266666Y-84652380D02*
X85266666Y-85366666D01*
X85219047Y-85509523D01*
X85123809Y-85604761D01*
X84980952Y-85652380D01*
X84885714Y-85652380D01*
X86266666Y-85652380D02*
X85695238Y-85652380D01*
X85980952Y-85652380D02*
X85980952Y-84652380D01*
X85885714Y-84795238D01*
X85790476Y-84890476D01*
X85695238Y-84938095D01*
X104622380Y-100333333D02*
X105336666Y-100333333D01*
X105479523Y-100380952D01*
X105574761Y-100476190D01*
X105622380Y-100619047D01*
X105622380Y-100714285D01*
X104717619Y-99904761D02*
X104670000Y-99857142D01*
X104622380Y-99761904D01*
X104622380Y-99523809D01*
X104670000Y-99428571D01*
X104717619Y-99380952D01*
X104812857Y-99333333D01*
X104908095Y-99333333D01*
X105050952Y-99380952D01*
X105622380Y-99952380D01*
X105622380Y-99333333D01*
X110666666Y-107952380D02*
X110666666Y-108666666D01*
X110619047Y-108809523D01*
X110523809Y-108904761D01*
X110380952Y-108952380D01*
X110285714Y-108952380D01*
X111047619Y-107952380D02*
X111666666Y-107952380D01*
X111333333Y-108333333D01*
X111476190Y-108333333D01*
X111571428Y-108380952D01*
X111619047Y-108428571D01*
X111666666Y-108523809D01*
X111666666Y-108761904D01*
X111619047Y-108857142D01*
X111571428Y-108904761D01*
X111476190Y-108952380D01*
X111190476Y-108952380D01*
X111095238Y-108904761D01*
X111047619Y-108857142D01*
X138066666Y-106852380D02*
X138066666Y-107566666D01*
X138019047Y-107709523D01*
X137923809Y-107804761D01*
X137780952Y-107852380D01*
X137685714Y-107852380D01*
X138971428Y-107185714D02*
X138971428Y-107852380D01*
X138733333Y-106804761D02*
X138495238Y-107519047D01*
X139114285Y-107519047D01*
X95904761Y-108747619D02*
X95809523Y-108700000D01*
X95714285Y-108604761D01*
X95571428Y-108461904D01*
X95476190Y-108414285D01*
X95380952Y-108414285D01*
X95428571Y-108652380D02*
X95333333Y-108604761D01*
X95238095Y-108509523D01*
X95190476Y-108319047D01*
X95190476Y-107985714D01*
X95238095Y-107795238D01*
X95333333Y-107700000D01*
X95428571Y-107652380D01*
X95619047Y-107652380D01*
X95714285Y-107700000D01*
X95809523Y-107795238D01*
X95857142Y-107985714D01*
X95857142Y-108319047D01*
X95809523Y-108509523D01*
X95714285Y-108604761D01*
X95619047Y-108652380D01*
X95428571Y-108652380D01*
X96809523Y-108652380D02*
X96238095Y-108652380D01*
X96523809Y-108652380D02*
X96523809Y-107652380D01*
X96428571Y-107795238D01*
X96333333Y-107890476D01*
X96238095Y-107938095D01*
X124833333Y-86882380D02*
X124500000Y-86406190D01*
X124261904Y-86882380D02*
X124261904Y-85882380D01*
X124642857Y-85882380D01*
X124738095Y-85930000D01*
X124785714Y-85977619D01*
X124833333Y-86072857D01*
X124833333Y-86215714D01*
X124785714Y-86310952D01*
X124738095Y-86358571D01*
X124642857Y-86406190D01*
X124261904Y-86406190D01*
X125785714Y-86882380D02*
X125214285Y-86882380D01*
X125500000Y-86882380D02*
X125500000Y-85882380D01*
X125404761Y-86025238D01*
X125309523Y-86120476D01*
X125214285Y-86168095D01*
X98833333Y-92652380D02*
X98500000Y-92176190D01*
X98261904Y-92652380D02*
X98261904Y-91652380D01*
X98642857Y-91652380D01*
X98738095Y-91700000D01*
X98785714Y-91747619D01*
X98833333Y-91842857D01*
X98833333Y-91985714D01*
X98785714Y-92080952D01*
X98738095Y-92128571D01*
X98642857Y-92176190D01*
X98261904Y-92176190D01*
X99214285Y-91747619D02*
X99261904Y-91700000D01*
X99357142Y-91652380D01*
X99595238Y-91652380D01*
X99690476Y-91700000D01*
X99738095Y-91747619D01*
X99785714Y-91842857D01*
X99785714Y-91938095D01*
X99738095Y-92080952D01*
X99166666Y-92652380D01*
X99785714Y-92652380D01*
X98833333Y-94452380D02*
X98500000Y-93976190D01*
X98261904Y-94452380D02*
X98261904Y-93452380D01*
X98642857Y-93452380D01*
X98738095Y-93500000D01*
X98785714Y-93547619D01*
X98833333Y-93642857D01*
X98833333Y-93785714D01*
X98785714Y-93880952D01*
X98738095Y-93928571D01*
X98642857Y-93976190D01*
X98261904Y-93976190D01*
X99166666Y-93452380D02*
X99785714Y-93452380D01*
X99452380Y-93833333D01*
X99595238Y-93833333D01*
X99690476Y-93880952D01*
X99738095Y-93928571D01*
X99785714Y-94023809D01*
X99785714Y-94261904D01*
X99738095Y-94357142D01*
X99690476Y-94404761D01*
X99595238Y-94452380D01*
X99309523Y-94452380D01*
X99214285Y-94404761D01*
X99166666Y-94357142D01*
X99033333Y-89652380D02*
X98700000Y-89176190D01*
X98461904Y-89652380D02*
X98461904Y-88652380D01*
X98842857Y-88652380D01*
X98938095Y-88700000D01*
X98985714Y-88747619D01*
X99033333Y-88842857D01*
X99033333Y-88985714D01*
X98985714Y-89080952D01*
X98938095Y-89128571D01*
X98842857Y-89176190D01*
X98461904Y-89176190D01*
X99890476Y-88985714D02*
X99890476Y-89652380D01*
X99652380Y-88604761D02*
X99414285Y-89319047D01*
X100033333Y-89319047D01*
X92033333Y-109452380D02*
X91700000Y-108976190D01*
X91461904Y-109452380D02*
X91461904Y-108452380D01*
X91842857Y-108452380D01*
X91938095Y-108500000D01*
X91985714Y-108547619D01*
X92033333Y-108642857D01*
X92033333Y-108785714D01*
X91985714Y-108880952D01*
X91938095Y-108928571D01*
X91842857Y-108976190D01*
X91461904Y-108976190D01*
X92509523Y-109452380D02*
X92700000Y-109452380D01*
X92795238Y-109404761D01*
X92842857Y-109357142D01*
X92938095Y-109214285D01*
X92985714Y-109023809D01*
X92985714Y-108642857D01*
X92938095Y-108547619D01*
X92890476Y-108500000D01*
X92795238Y-108452380D01*
X92604761Y-108452380D01*
X92509523Y-108500000D01*
X92461904Y-108547619D01*
X92414285Y-108642857D01*
X92414285Y-108880952D01*
X92461904Y-108976190D01*
X92509523Y-109023809D01*
X92604761Y-109071428D01*
X92795238Y-109071428D01*
X92890476Y-109023809D01*
X92938095Y-108976190D01*
X92985714Y-108880952D01*
X113388095Y-83252380D02*
X113388095Y-84061904D01*
X113435714Y-84157142D01*
X113483333Y-84204761D01*
X113578571Y-84252380D01*
X113769047Y-84252380D01*
X113864285Y-84204761D01*
X113911904Y-84157142D01*
X113959523Y-84061904D01*
X113959523Y-83252380D01*
X114959523Y-84252380D02*
X114388095Y-84252380D01*
X114673809Y-84252380D02*
X114673809Y-83252380D01*
X114578571Y-83395238D01*
X114483333Y-83490476D01*
X114388095Y-83538095D01*
X85938095Y-92152380D02*
X85938095Y-92961904D01*
X85985714Y-93057142D01*
X86033333Y-93104761D01*
X86128571Y-93152380D01*
X86319047Y-93152380D01*
X86414285Y-93104761D01*
X86461904Y-93057142D01*
X86509523Y-92961904D01*
X86509523Y-92152380D01*
X86938095Y-92247619D02*
X86985714Y-92200000D01*
X87080952Y-92152380D01*
X87319047Y-92152380D01*
X87414285Y-92200000D01*
X87461904Y-92247619D01*
X87509523Y-92342857D01*
X87509523Y-92438095D01*
X87461904Y-92580952D01*
X86890476Y-93152380D01*
X87509523Y-93152380D01*
X133866666Y-106652380D02*
X133866666Y-107366666D01*
X133819047Y-107509523D01*
X133723809Y-107604761D01*
X133580952Y-107652380D01*
X133485714Y-107652380D01*
X134819047Y-106652380D02*
X134342857Y-106652380D01*
X134295238Y-107128571D01*
X134342857Y-107080952D01*
X134438095Y-107033333D01*
X134676190Y-107033333D01*
X134771428Y-107080952D01*
X134819047Y-107128571D01*
X134866666Y-107223809D01*
X134866666Y-107461904D01*
X134819047Y-107557142D01*
X134771428Y-107604761D01*
X134676190Y-107652380D01*
X134438095Y-107652380D01*
X134342857Y-107604761D01*
X134295238Y-107557142D01*
M02*
