G04 #@! TF.GenerationSoftware,KiCad,Pcbnew,(5.1.4-0)*
G04 #@! TF.CreationDate,2022-04-01T12:31:45+08:00*
G04 #@! TF.ProjectId,esp8266_ntp_clock,65737038-3236-4365-9f6e-74705f636c6f,v1.0*
G04 #@! TF.SameCoordinates,Original*
G04 #@! TF.FileFunction,Soldermask,Bot*
G04 #@! TF.FilePolarity,Negative*
%FSLAX46Y46*%
G04 Gerber Fmt 4.6, Leading zero omitted, Abs format (unit mm)*
G04 Created by KiCad (PCBNEW (5.1.4-0)) date 2022-04-01 12:31:45*
%MOMM*%
%LPD*%
G04 APERTURE LIST*
%ADD10C,0.100000*%
G04 APERTURE END LIST*
D10*
G36*
X144327477Y-108623892D02*
G01*
X144670541Y-108765994D01*
X145155707Y-108966956D01*
X145901093Y-109465008D01*
X146534992Y-110098907D01*
X147033044Y-110844293D01*
X147223042Y-111302989D01*
X147376108Y-111672523D01*
X147551000Y-112551764D01*
X147551000Y-113448236D01*
X147376108Y-114327477D01*
X147234006Y-114670541D01*
X147033044Y-115155707D01*
X146534992Y-115901093D01*
X145901093Y-116534992D01*
X145155707Y-117033044D01*
X144670541Y-117234006D01*
X144327477Y-117376108D01*
X143448236Y-117551000D01*
X142551764Y-117551000D01*
X141672523Y-117376108D01*
X141329459Y-117234006D01*
X140844293Y-117033044D01*
X140098907Y-116534992D01*
X139465008Y-115901093D01*
X138966956Y-115155707D01*
X138765994Y-114670541D01*
X138623892Y-114327477D01*
X138449000Y-113448236D01*
X138449000Y-112551764D01*
X138623892Y-111672523D01*
X138776958Y-111302989D01*
X138966956Y-110844293D01*
X139465008Y-110098907D01*
X140098907Y-109465008D01*
X140844293Y-108966956D01*
X141329459Y-108765994D01*
X141672523Y-108623892D01*
X142551764Y-108449000D01*
X143448236Y-108449000D01*
X144327477Y-108623892D01*
X144327477Y-108623892D01*
G37*
G36*
X86327477Y-108623892D02*
G01*
X86670541Y-108765994D01*
X87155707Y-108966956D01*
X87901093Y-109465008D01*
X88534992Y-110098907D01*
X89033044Y-110844293D01*
X89223042Y-111302989D01*
X89376108Y-111672523D01*
X89551000Y-112551764D01*
X89551000Y-113448236D01*
X89376108Y-114327477D01*
X89234006Y-114670541D01*
X89033044Y-115155707D01*
X88534992Y-115901093D01*
X87901093Y-116534992D01*
X87155707Y-117033044D01*
X86670541Y-117234006D01*
X86327477Y-117376108D01*
X85448236Y-117551000D01*
X84551764Y-117551000D01*
X83672523Y-117376108D01*
X83329459Y-117234006D01*
X82844293Y-117033044D01*
X82098907Y-116534992D01*
X81465008Y-115901093D01*
X80966956Y-115155707D01*
X80765994Y-114670541D01*
X80623892Y-114327477D01*
X80449000Y-113448236D01*
X80449000Y-112551764D01*
X80623892Y-111672523D01*
X80776958Y-111302989D01*
X80966956Y-110844293D01*
X81465008Y-110098907D01*
X82098907Y-109465008D01*
X82844293Y-108966956D01*
X83329459Y-108765994D01*
X83672523Y-108623892D01*
X84551764Y-108449000D01*
X85448236Y-108449000D01*
X86327477Y-108623892D01*
X86327477Y-108623892D01*
G37*
G36*
X112301000Y-111701000D02*
G01*
X110499000Y-111701000D01*
X110499000Y-109899000D01*
X112301000Y-109899000D01*
X112301000Y-111701000D01*
X112301000Y-111701000D01*
G37*
G36*
X116590442Y-109905518D02*
G01*
X116656627Y-109912037D01*
X116826466Y-109963557D01*
X116982991Y-110047222D01*
X117018729Y-110076552D01*
X117120186Y-110159814D01*
X117203448Y-110261271D01*
X117232778Y-110297009D01*
X117316443Y-110453534D01*
X117367963Y-110623373D01*
X117385359Y-110800000D01*
X117367963Y-110976627D01*
X117316443Y-111146466D01*
X117232778Y-111302991D01*
X117203448Y-111338729D01*
X117120186Y-111440186D01*
X117018729Y-111523448D01*
X116982991Y-111552778D01*
X116826466Y-111636443D01*
X116656627Y-111687963D01*
X116590442Y-111694482D01*
X116524260Y-111701000D01*
X116435740Y-111701000D01*
X116369558Y-111694482D01*
X116303373Y-111687963D01*
X116133534Y-111636443D01*
X115977009Y-111552778D01*
X115941271Y-111523448D01*
X115839814Y-111440186D01*
X115756552Y-111338729D01*
X115727222Y-111302991D01*
X115643557Y-111146466D01*
X115592037Y-110976627D01*
X115574641Y-110800000D01*
X115592037Y-110623373D01*
X115643557Y-110453534D01*
X115727222Y-110297009D01*
X115756552Y-110261271D01*
X115839814Y-110159814D01*
X115941271Y-110076552D01*
X115977009Y-110047222D01*
X116133534Y-109963557D01*
X116303373Y-109912037D01*
X116369558Y-109905518D01*
X116435740Y-109899000D01*
X116524260Y-109899000D01*
X116590442Y-109905518D01*
X116590442Y-109905518D01*
G37*
G36*
X114050442Y-109905518D02*
G01*
X114116627Y-109912037D01*
X114286466Y-109963557D01*
X114442991Y-110047222D01*
X114478729Y-110076552D01*
X114580186Y-110159814D01*
X114663448Y-110261271D01*
X114692778Y-110297009D01*
X114776443Y-110453534D01*
X114827963Y-110623373D01*
X114845359Y-110800000D01*
X114827963Y-110976627D01*
X114776443Y-111146466D01*
X114692778Y-111302991D01*
X114663448Y-111338729D01*
X114580186Y-111440186D01*
X114478729Y-111523448D01*
X114442991Y-111552778D01*
X114286466Y-111636443D01*
X114116627Y-111687963D01*
X114050442Y-111694482D01*
X113984260Y-111701000D01*
X113895740Y-111701000D01*
X113829558Y-111694482D01*
X113763373Y-111687963D01*
X113593534Y-111636443D01*
X113437009Y-111552778D01*
X113401271Y-111523448D01*
X113299814Y-111440186D01*
X113216552Y-111338729D01*
X113187222Y-111302991D01*
X113103557Y-111146466D01*
X113052037Y-110976627D01*
X113034641Y-110800000D01*
X113052037Y-110623373D01*
X113103557Y-110453534D01*
X113187222Y-110297009D01*
X113216552Y-110261271D01*
X113299814Y-110159814D01*
X113401271Y-110076552D01*
X113437009Y-110047222D01*
X113593534Y-109963557D01*
X113763373Y-109912037D01*
X113829558Y-109905518D01*
X113895740Y-109899000D01*
X113984260Y-109899000D01*
X114050442Y-109905518D01*
X114050442Y-109905518D01*
G37*
G36*
X114951000Y-108351000D02*
G01*
X113049000Y-108351000D01*
X113049000Y-106449000D01*
X114951000Y-106449000D01*
X114951000Y-108351000D01*
X114951000Y-108351000D01*
G37*
G36*
X114277395Y-103945546D02*
G01*
X114450466Y-104017234D01*
X114450467Y-104017235D01*
X114606227Y-104121310D01*
X114738690Y-104253773D01*
X114738691Y-104253775D01*
X114842766Y-104409534D01*
X114914454Y-104582605D01*
X114951000Y-104766333D01*
X114951000Y-104953667D01*
X114914454Y-105137395D01*
X114842766Y-105310466D01*
X114842765Y-105310467D01*
X114738690Y-105466227D01*
X114606227Y-105598690D01*
X114527818Y-105651081D01*
X114450466Y-105702766D01*
X114277395Y-105774454D01*
X114093667Y-105811000D01*
X113906333Y-105811000D01*
X113722605Y-105774454D01*
X113549534Y-105702766D01*
X113472182Y-105651081D01*
X113393773Y-105598690D01*
X113261310Y-105466227D01*
X113157235Y-105310467D01*
X113157234Y-105310466D01*
X113085546Y-105137395D01*
X113049000Y-104953667D01*
X113049000Y-104766333D01*
X113085546Y-104582605D01*
X113157234Y-104409534D01*
X113261309Y-104253775D01*
X113261310Y-104253773D01*
X113393773Y-104121310D01*
X113549533Y-104017235D01*
X113549534Y-104017234D01*
X113722605Y-103945546D01*
X113906333Y-103909000D01*
X114093667Y-103909000D01*
X114277395Y-103945546D01*
X114277395Y-103945546D01*
G37*
G36*
X126999091Y-104448090D02*
G01*
X125351910Y-105399091D01*
X124400909Y-103751910D01*
X126048090Y-102800909D01*
X126999091Y-104448090D01*
X126999091Y-104448090D01*
G37*
G36*
X134301000Y-105101000D02*
G01*
X132499000Y-105101000D01*
X132499000Y-103299000D01*
X134301000Y-103299000D01*
X134301000Y-105101000D01*
X134301000Y-105101000D01*
G37*
G36*
X102507395Y-103185251D02*
G01*
X102680466Y-103256939D01*
X102680467Y-103256940D01*
X102836227Y-103361015D01*
X102968690Y-103493478D01*
X102968691Y-103493480D01*
X103072766Y-103649239D01*
X103144454Y-103822310D01*
X103181000Y-104006038D01*
X103181000Y-104193372D01*
X103144454Y-104377100D01*
X103072766Y-104550171D01*
X103072765Y-104550172D01*
X102968690Y-104705932D01*
X102836227Y-104838395D01*
X102757818Y-104890786D01*
X102680466Y-104942471D01*
X102507395Y-105014159D01*
X102323667Y-105050705D01*
X102136333Y-105050705D01*
X101952605Y-105014159D01*
X101779534Y-104942471D01*
X101702182Y-104890786D01*
X101623773Y-104838395D01*
X101491310Y-104705932D01*
X101387235Y-104550172D01*
X101387234Y-104550171D01*
X101315546Y-104377100D01*
X101279000Y-104193372D01*
X101279000Y-104006038D01*
X101315546Y-103822310D01*
X101387234Y-103649239D01*
X101491309Y-103493480D01*
X101491310Y-103493478D01*
X101623773Y-103361015D01*
X101779533Y-103256940D01*
X101779534Y-103256939D01*
X101952605Y-103185251D01*
X102136333Y-103148705D01*
X102323667Y-103148705D01*
X102507395Y-103185251D01*
X102507395Y-103185251D01*
G37*
G36*
X138166242Y-103153404D02*
G01*
X138203337Y-103164657D01*
X138237515Y-103182925D01*
X138267481Y-103207519D01*
X138292075Y-103237485D01*
X138310343Y-103271663D01*
X138321596Y-103308758D01*
X138326000Y-103353474D01*
X138326000Y-104246526D01*
X138321596Y-104291242D01*
X138310343Y-104328337D01*
X138292075Y-104362515D01*
X138267481Y-104392481D01*
X138237515Y-104417075D01*
X138203337Y-104435343D01*
X138166242Y-104446596D01*
X138121526Y-104451000D01*
X136678474Y-104451000D01*
X136633758Y-104446596D01*
X136596663Y-104435343D01*
X136562485Y-104417075D01*
X136532519Y-104392481D01*
X136507925Y-104362515D01*
X136489657Y-104328337D01*
X136478404Y-104291242D01*
X136474000Y-104246526D01*
X136474000Y-103353474D01*
X136478404Y-103308758D01*
X136489657Y-103271663D01*
X136507925Y-103237485D01*
X136532519Y-103207519D01*
X136562485Y-103182925D01*
X136596663Y-103164657D01*
X136633758Y-103153404D01*
X136678474Y-103149000D01*
X138121526Y-103149000D01*
X138166242Y-103153404D01*
X138166242Y-103153404D01*
G37*
G36*
X104799091Y-101551910D02*
G01*
X103848090Y-103199091D01*
X102200909Y-102248090D01*
X103151910Y-100600909D01*
X104799091Y-101551910D01*
X104799091Y-101551910D01*
G37*
G36*
X124707395Y-100985841D02*
G01*
X124880466Y-101057529D01*
X124880467Y-101057530D01*
X125036227Y-101161605D01*
X125168690Y-101294068D01*
X125197674Y-101337446D01*
X125272766Y-101449829D01*
X125344454Y-101622900D01*
X125381000Y-101806628D01*
X125381000Y-101993962D01*
X125344454Y-102177690D01*
X125272766Y-102350761D01*
X125231327Y-102412779D01*
X125168690Y-102506522D01*
X125036227Y-102638985D01*
X124957818Y-102691376D01*
X124880466Y-102743061D01*
X124707395Y-102814749D01*
X124523667Y-102851295D01*
X124336333Y-102851295D01*
X124152605Y-102814749D01*
X123979534Y-102743061D01*
X123902182Y-102691376D01*
X123823773Y-102638985D01*
X123691310Y-102506522D01*
X123628673Y-102412779D01*
X123587234Y-102350761D01*
X123515546Y-102177690D01*
X123479000Y-101993962D01*
X123479000Y-101806628D01*
X123515546Y-101622900D01*
X123587234Y-101449829D01*
X123662326Y-101337446D01*
X123691310Y-101294068D01*
X123823773Y-101161605D01*
X123979533Y-101057530D01*
X123979534Y-101057529D01*
X124152605Y-100985841D01*
X124336333Y-100949295D01*
X124523667Y-100949295D01*
X124707395Y-100985841D01*
X124707395Y-100985841D01*
G37*
G36*
X133510443Y-100765519D02*
G01*
X133576627Y-100772037D01*
X133746466Y-100823557D01*
X133902991Y-100907222D01*
X133938729Y-100936552D01*
X134040186Y-101019814D01*
X134123448Y-101121271D01*
X134152778Y-101157009D01*
X134236443Y-101313534D01*
X134287963Y-101483373D01*
X134305359Y-101660000D01*
X134287963Y-101836627D01*
X134236443Y-102006466D01*
X134152778Y-102162991D01*
X134140714Y-102177691D01*
X134040186Y-102300186D01*
X133938729Y-102383448D01*
X133902991Y-102412778D01*
X133746466Y-102496443D01*
X133576627Y-102547963D01*
X133510443Y-102554481D01*
X133444260Y-102561000D01*
X133355740Y-102561000D01*
X133289558Y-102554482D01*
X133223373Y-102547963D01*
X133053534Y-102496443D01*
X132897009Y-102412778D01*
X132861271Y-102383448D01*
X132759814Y-102300186D01*
X132659286Y-102177691D01*
X132647222Y-102162991D01*
X132563557Y-102006466D01*
X132512037Y-101836627D01*
X132494641Y-101660000D01*
X132512037Y-101483373D01*
X132563557Y-101313534D01*
X132647222Y-101157009D01*
X132676552Y-101121271D01*
X132759814Y-101019814D01*
X132861271Y-100936552D01*
X132897009Y-100907222D01*
X133053534Y-100823557D01*
X133223373Y-100772037D01*
X133289557Y-100765519D01*
X133355740Y-100759000D01*
X133444260Y-100759000D01*
X133510443Y-100765519D01*
X133510443Y-100765519D01*
G37*
G36*
X137738855Y-101152140D02*
G01*
X137802618Y-101158420D01*
X137893404Y-101185960D01*
X137925336Y-101195646D01*
X138038425Y-101256094D01*
X138137554Y-101337446D01*
X138218906Y-101436575D01*
X138279354Y-101549664D01*
X138279355Y-101549668D01*
X138316580Y-101672382D01*
X138329149Y-101800000D01*
X138316580Y-101927618D01*
X138296455Y-101993960D01*
X138279354Y-102050336D01*
X138218906Y-102163425D01*
X138137554Y-102262554D01*
X138038425Y-102343906D01*
X137925336Y-102404354D01*
X137897565Y-102412778D01*
X137802618Y-102441580D01*
X137738855Y-102447860D01*
X137706974Y-102451000D01*
X137093026Y-102451000D01*
X137061145Y-102447860D01*
X136997382Y-102441580D01*
X136902435Y-102412778D01*
X136874664Y-102404354D01*
X136761575Y-102343906D01*
X136662446Y-102262554D01*
X136581094Y-102163425D01*
X136520646Y-102050336D01*
X136503545Y-101993960D01*
X136483420Y-101927618D01*
X136470851Y-101800000D01*
X136483420Y-101672382D01*
X136520645Y-101549668D01*
X136520646Y-101549664D01*
X136581094Y-101436575D01*
X136662446Y-101337446D01*
X136761575Y-101256094D01*
X136874664Y-101195646D01*
X136906596Y-101185960D01*
X136997382Y-101158420D01*
X137061145Y-101152140D01*
X137093026Y-101149000D01*
X137706974Y-101149000D01*
X137738855Y-101152140D01*
X137738855Y-101152140D01*
G37*
G36*
X108401000Y-100901000D02*
G01*
X106599000Y-100901000D01*
X106599000Y-99099000D01*
X108401000Y-99099000D01*
X108401000Y-100901000D01*
X108401000Y-100901000D01*
G37*
G36*
X120310442Y-99105518D02*
G01*
X120376627Y-99112037D01*
X120546466Y-99163557D01*
X120702991Y-99247222D01*
X120738729Y-99276552D01*
X120840186Y-99359814D01*
X120923448Y-99461271D01*
X120952778Y-99497009D01*
X121036443Y-99653534D01*
X121087963Y-99823373D01*
X121105359Y-100000000D01*
X121087963Y-100176627D01*
X121036443Y-100346466D01*
X120952778Y-100502991D01*
X120923448Y-100538729D01*
X120840186Y-100640186D01*
X120738729Y-100723448D01*
X120702991Y-100752778D01*
X120546466Y-100836443D01*
X120376627Y-100887963D01*
X120310443Y-100894481D01*
X120244260Y-100901000D01*
X120155740Y-100901000D01*
X120089557Y-100894481D01*
X120023373Y-100887963D01*
X119853534Y-100836443D01*
X119697009Y-100752778D01*
X119661271Y-100723448D01*
X119559814Y-100640186D01*
X119476552Y-100538729D01*
X119447222Y-100502991D01*
X119363557Y-100346466D01*
X119312037Y-100176627D01*
X119294641Y-100000000D01*
X119312037Y-99823373D01*
X119363557Y-99653534D01*
X119447222Y-99497009D01*
X119476552Y-99461271D01*
X119559814Y-99359814D01*
X119661271Y-99276552D01*
X119697009Y-99247222D01*
X119853534Y-99163557D01*
X120023373Y-99112037D01*
X120089558Y-99105518D01*
X120155740Y-99099000D01*
X120244260Y-99099000D01*
X120310442Y-99105518D01*
X120310442Y-99105518D01*
G37*
G36*
X117770442Y-99105518D02*
G01*
X117836627Y-99112037D01*
X118006466Y-99163557D01*
X118162991Y-99247222D01*
X118198729Y-99276552D01*
X118300186Y-99359814D01*
X118383448Y-99461271D01*
X118412778Y-99497009D01*
X118496443Y-99653534D01*
X118547963Y-99823373D01*
X118565359Y-100000000D01*
X118547963Y-100176627D01*
X118496443Y-100346466D01*
X118412778Y-100502991D01*
X118383448Y-100538729D01*
X118300186Y-100640186D01*
X118198729Y-100723448D01*
X118162991Y-100752778D01*
X118006466Y-100836443D01*
X117836627Y-100887963D01*
X117770443Y-100894481D01*
X117704260Y-100901000D01*
X117615740Y-100901000D01*
X117549557Y-100894481D01*
X117483373Y-100887963D01*
X117313534Y-100836443D01*
X117157009Y-100752778D01*
X117121271Y-100723448D01*
X117019814Y-100640186D01*
X116936552Y-100538729D01*
X116907222Y-100502991D01*
X116823557Y-100346466D01*
X116772037Y-100176627D01*
X116754641Y-100000000D01*
X116772037Y-99823373D01*
X116823557Y-99653534D01*
X116907222Y-99497009D01*
X116936552Y-99461271D01*
X117019814Y-99359814D01*
X117121271Y-99276552D01*
X117157009Y-99247222D01*
X117313534Y-99163557D01*
X117483373Y-99112037D01*
X117549558Y-99105518D01*
X117615740Y-99099000D01*
X117704260Y-99099000D01*
X117770442Y-99105518D01*
X117770442Y-99105518D01*
G37*
G36*
X115230442Y-99105518D02*
G01*
X115296627Y-99112037D01*
X115466466Y-99163557D01*
X115622991Y-99247222D01*
X115658729Y-99276552D01*
X115760186Y-99359814D01*
X115843448Y-99461271D01*
X115872778Y-99497009D01*
X115956443Y-99653534D01*
X116007963Y-99823373D01*
X116025359Y-100000000D01*
X116007963Y-100176627D01*
X115956443Y-100346466D01*
X115872778Y-100502991D01*
X115843448Y-100538729D01*
X115760186Y-100640186D01*
X115658729Y-100723448D01*
X115622991Y-100752778D01*
X115466466Y-100836443D01*
X115296627Y-100887963D01*
X115230443Y-100894481D01*
X115164260Y-100901000D01*
X115075740Y-100901000D01*
X115009557Y-100894481D01*
X114943373Y-100887963D01*
X114773534Y-100836443D01*
X114617009Y-100752778D01*
X114581271Y-100723448D01*
X114479814Y-100640186D01*
X114396552Y-100538729D01*
X114367222Y-100502991D01*
X114283557Y-100346466D01*
X114232037Y-100176627D01*
X114214641Y-100000000D01*
X114232037Y-99823373D01*
X114283557Y-99653534D01*
X114367222Y-99497009D01*
X114396552Y-99461271D01*
X114479814Y-99359814D01*
X114581271Y-99276552D01*
X114617009Y-99247222D01*
X114773534Y-99163557D01*
X114943373Y-99112037D01*
X115009558Y-99105518D01*
X115075740Y-99099000D01*
X115164260Y-99099000D01*
X115230442Y-99105518D01*
X115230442Y-99105518D01*
G37*
G36*
X112690442Y-99105518D02*
G01*
X112756627Y-99112037D01*
X112926466Y-99163557D01*
X113082991Y-99247222D01*
X113118729Y-99276552D01*
X113220186Y-99359814D01*
X113303448Y-99461271D01*
X113332778Y-99497009D01*
X113416443Y-99653534D01*
X113467963Y-99823373D01*
X113485359Y-100000000D01*
X113467963Y-100176627D01*
X113416443Y-100346466D01*
X113332778Y-100502991D01*
X113303448Y-100538729D01*
X113220186Y-100640186D01*
X113118729Y-100723448D01*
X113082991Y-100752778D01*
X112926466Y-100836443D01*
X112756627Y-100887963D01*
X112690443Y-100894481D01*
X112624260Y-100901000D01*
X112535740Y-100901000D01*
X112469557Y-100894481D01*
X112403373Y-100887963D01*
X112233534Y-100836443D01*
X112077009Y-100752778D01*
X112041271Y-100723448D01*
X111939814Y-100640186D01*
X111856552Y-100538729D01*
X111827222Y-100502991D01*
X111743557Y-100346466D01*
X111692037Y-100176627D01*
X111674641Y-100000000D01*
X111692037Y-99823373D01*
X111743557Y-99653534D01*
X111827222Y-99497009D01*
X111856552Y-99461271D01*
X111939814Y-99359814D01*
X112041271Y-99276552D01*
X112077009Y-99247222D01*
X112233534Y-99163557D01*
X112403373Y-99112037D01*
X112469558Y-99105518D01*
X112535740Y-99099000D01*
X112624260Y-99099000D01*
X112690442Y-99105518D01*
X112690442Y-99105518D01*
G37*
G36*
X110150442Y-99105518D02*
G01*
X110216627Y-99112037D01*
X110386466Y-99163557D01*
X110542991Y-99247222D01*
X110578729Y-99276552D01*
X110680186Y-99359814D01*
X110763448Y-99461271D01*
X110792778Y-99497009D01*
X110876443Y-99653534D01*
X110927963Y-99823373D01*
X110945359Y-100000000D01*
X110927963Y-100176627D01*
X110876443Y-100346466D01*
X110792778Y-100502991D01*
X110763448Y-100538729D01*
X110680186Y-100640186D01*
X110578729Y-100723448D01*
X110542991Y-100752778D01*
X110386466Y-100836443D01*
X110216627Y-100887963D01*
X110150443Y-100894481D01*
X110084260Y-100901000D01*
X109995740Y-100901000D01*
X109929557Y-100894481D01*
X109863373Y-100887963D01*
X109693534Y-100836443D01*
X109537009Y-100752778D01*
X109501271Y-100723448D01*
X109399814Y-100640186D01*
X109316552Y-100538729D01*
X109287222Y-100502991D01*
X109203557Y-100346466D01*
X109152037Y-100176627D01*
X109134641Y-100000000D01*
X109152037Y-99823373D01*
X109203557Y-99653534D01*
X109287222Y-99497009D01*
X109316552Y-99461271D01*
X109399814Y-99359814D01*
X109501271Y-99276552D01*
X109537009Y-99247222D01*
X109693534Y-99163557D01*
X109863373Y-99112037D01*
X109929558Y-99105518D01*
X109995740Y-99099000D01*
X110084260Y-99099000D01*
X110150442Y-99105518D01*
X110150442Y-99105518D01*
G37*
G36*
X94177690Y-95055546D02*
G01*
X94350761Y-95127234D01*
X94350762Y-95127235D01*
X94506522Y-95231310D01*
X94638985Y-95363773D01*
X94638986Y-95363775D01*
X94743061Y-95519534D01*
X94814749Y-95692605D01*
X94851295Y-95876333D01*
X94851295Y-96063667D01*
X94814749Y-96247395D01*
X94743061Y-96420466D01*
X94743060Y-96420467D01*
X94638985Y-96576227D01*
X94506522Y-96708690D01*
X94428113Y-96761081D01*
X94350761Y-96812766D01*
X94177690Y-96884454D01*
X93993962Y-96921000D01*
X93806628Y-96921000D01*
X93622900Y-96884454D01*
X93449829Y-96812766D01*
X93372477Y-96761081D01*
X93294068Y-96708690D01*
X93161605Y-96576227D01*
X93057530Y-96420467D01*
X93057529Y-96420466D01*
X92985841Y-96247395D01*
X92949295Y-96063667D01*
X92949295Y-95876333D01*
X92985841Y-95692605D01*
X93057529Y-95519534D01*
X93161604Y-95363775D01*
X93161605Y-95363773D01*
X93294068Y-95231310D01*
X93449828Y-95127235D01*
X93449829Y-95127234D01*
X93622900Y-95055546D01*
X93806628Y-95019000D01*
X93993962Y-95019000D01*
X94177690Y-95055546D01*
X94177690Y-95055546D01*
G37*
G36*
X134477100Y-94855546D02*
G01*
X134650171Y-94927234D01*
X134650172Y-94927235D01*
X134805932Y-95031310D01*
X134938395Y-95163773D01*
X134938396Y-95163775D01*
X135042471Y-95319534D01*
X135114159Y-95492605D01*
X135150705Y-95676333D01*
X135150705Y-95863667D01*
X135114159Y-96047395D01*
X135042471Y-96220466D01*
X135024477Y-96247396D01*
X134938395Y-96376227D01*
X134805932Y-96508690D01*
X134727523Y-96561081D01*
X134650171Y-96612766D01*
X134477100Y-96684454D01*
X134293372Y-96721000D01*
X134106038Y-96721000D01*
X133922310Y-96684454D01*
X133749239Y-96612766D01*
X133671887Y-96561081D01*
X133593478Y-96508690D01*
X133461015Y-96376227D01*
X133374933Y-96247396D01*
X133356939Y-96220466D01*
X133285251Y-96047395D01*
X133248705Y-95863667D01*
X133248705Y-95676333D01*
X133285251Y-95492605D01*
X133356939Y-95319534D01*
X133461014Y-95163775D01*
X133461015Y-95163773D01*
X133593478Y-95031310D01*
X133749238Y-94927235D01*
X133749239Y-94927234D01*
X133922310Y-94855546D01*
X134106038Y-94819000D01*
X134293372Y-94819000D01*
X134477100Y-94855546D01*
X134477100Y-94855546D01*
G37*
G36*
X97399091Y-95048090D02*
G01*
X95751910Y-95999091D01*
X94800909Y-94351910D01*
X96448090Y-93400909D01*
X97399091Y-95048090D01*
X97399091Y-95048090D01*
G37*
G36*
X133299091Y-94151910D02*
G01*
X132348090Y-95799091D01*
X130700909Y-94848090D01*
X131651910Y-93200909D01*
X133299091Y-94151910D01*
X133299091Y-94151910D01*
G37*
G36*
X91651000Y-84951000D02*
G01*
X89749000Y-84951000D01*
X89749000Y-83049000D01*
X91651000Y-83049000D01*
X91651000Y-84951000D01*
X91651000Y-84951000D01*
G37*
G36*
X93517395Y-83085546D02*
G01*
X93690466Y-83157234D01*
X93690467Y-83157235D01*
X93846227Y-83261310D01*
X93978690Y-83393773D01*
X93978691Y-83393775D01*
X94082766Y-83549534D01*
X94154454Y-83722605D01*
X94191000Y-83906333D01*
X94191000Y-84093667D01*
X94154454Y-84277395D01*
X94082766Y-84450466D01*
X94082765Y-84450467D01*
X93978690Y-84606227D01*
X93846227Y-84738690D01*
X93767818Y-84791081D01*
X93690466Y-84842766D01*
X93517395Y-84914454D01*
X93333667Y-84951000D01*
X93146333Y-84951000D01*
X92962605Y-84914454D01*
X92789534Y-84842766D01*
X92712182Y-84791081D01*
X92633773Y-84738690D01*
X92501310Y-84606227D01*
X92397235Y-84450467D01*
X92397234Y-84450466D01*
X92325546Y-84277395D01*
X92289000Y-84093667D01*
X92289000Y-83906333D01*
X92325546Y-83722605D01*
X92397234Y-83549534D01*
X92501309Y-83393775D01*
X92501310Y-83393773D01*
X92633773Y-83261310D01*
X92789533Y-83157235D01*
X92789534Y-83157234D01*
X92962605Y-83085546D01*
X93146333Y-83049000D01*
X93333667Y-83049000D01*
X93517395Y-83085546D01*
X93517395Y-83085546D01*
G37*
G36*
X135651000Y-84951000D02*
G01*
X133749000Y-84951000D01*
X133749000Y-83049000D01*
X135651000Y-83049000D01*
X135651000Y-84951000D01*
X135651000Y-84951000D01*
G37*
G36*
X137517395Y-83085546D02*
G01*
X137690466Y-83157234D01*
X137690467Y-83157235D01*
X137846227Y-83261310D01*
X137978690Y-83393773D01*
X137978691Y-83393775D01*
X138082766Y-83549534D01*
X138154454Y-83722605D01*
X138191000Y-83906333D01*
X138191000Y-84093667D01*
X138154454Y-84277395D01*
X138082766Y-84450466D01*
X138082765Y-84450467D01*
X137978690Y-84606227D01*
X137846227Y-84738690D01*
X137767818Y-84791081D01*
X137690466Y-84842766D01*
X137517395Y-84914454D01*
X137333667Y-84951000D01*
X137146333Y-84951000D01*
X136962605Y-84914454D01*
X136789534Y-84842766D01*
X136712182Y-84791081D01*
X136633773Y-84738690D01*
X136501310Y-84606227D01*
X136397235Y-84450467D01*
X136397234Y-84450466D01*
X136325546Y-84277395D01*
X136289000Y-84093667D01*
X136289000Y-83906333D01*
X136325546Y-83722605D01*
X136397234Y-83549534D01*
X136501309Y-83393775D01*
X136501310Y-83393773D01*
X136633773Y-83261310D01*
X136789533Y-83157235D01*
X136789534Y-83157234D01*
X136962605Y-83085546D01*
X137146333Y-83049000D01*
X137333667Y-83049000D01*
X137517395Y-83085546D01*
X137517395Y-83085546D01*
G37*
G36*
X86401000Y-83401000D02*
G01*
X84599000Y-83401000D01*
X84599000Y-81599000D01*
X86401000Y-81599000D01*
X86401000Y-83401000D01*
X86401000Y-83401000D01*
G37*
G36*
X85610443Y-79065519D02*
G01*
X85676627Y-79072037D01*
X85846466Y-79123557D01*
X86002991Y-79207222D01*
X86038729Y-79236552D01*
X86140186Y-79319814D01*
X86223448Y-79421271D01*
X86252778Y-79457009D01*
X86336443Y-79613534D01*
X86387963Y-79783373D01*
X86405359Y-79960000D01*
X86387963Y-80136627D01*
X86336443Y-80306466D01*
X86252778Y-80462991D01*
X86223448Y-80498729D01*
X86140186Y-80600186D01*
X86038729Y-80683448D01*
X86002991Y-80712778D01*
X85846466Y-80796443D01*
X85676627Y-80847963D01*
X85610442Y-80854482D01*
X85544260Y-80861000D01*
X85455740Y-80861000D01*
X85389558Y-80854482D01*
X85323373Y-80847963D01*
X85153534Y-80796443D01*
X84997009Y-80712778D01*
X84961271Y-80683448D01*
X84859814Y-80600186D01*
X84776552Y-80498729D01*
X84747222Y-80462991D01*
X84663557Y-80306466D01*
X84612037Y-80136627D01*
X84594641Y-79960000D01*
X84612037Y-79783373D01*
X84663557Y-79613534D01*
X84747222Y-79457009D01*
X84776552Y-79421271D01*
X84859814Y-79319814D01*
X84961271Y-79236552D01*
X84997009Y-79207222D01*
X85153534Y-79123557D01*
X85323373Y-79072037D01*
X85389557Y-79065519D01*
X85455740Y-79059000D01*
X85544260Y-79059000D01*
X85610443Y-79065519D01*
X85610443Y-79065519D01*
G37*
G36*
X97299091Y-73351910D02*
G01*
X96348090Y-74999091D01*
X94700909Y-74048090D01*
X95651910Y-72400909D01*
X97299091Y-73351910D01*
X97299091Y-73351910D01*
G37*
G36*
X132177690Y-72655546D02*
G01*
X132350761Y-72727234D01*
X132350762Y-72727235D01*
X132506522Y-72831310D01*
X132638985Y-72963773D01*
X132638986Y-72963775D01*
X132743061Y-73119534D01*
X132814749Y-73292605D01*
X132851295Y-73476333D01*
X132851295Y-73663667D01*
X132814749Y-73847395D01*
X132743061Y-74020466D01*
X132743060Y-74020467D01*
X132638985Y-74176227D01*
X132506522Y-74308690D01*
X132428113Y-74361081D01*
X132350761Y-74412766D01*
X132177690Y-74484454D01*
X131993962Y-74521000D01*
X131806628Y-74521000D01*
X131622900Y-74484454D01*
X131449829Y-74412766D01*
X131372477Y-74361081D01*
X131294068Y-74308690D01*
X131161605Y-74176227D01*
X131057530Y-74020467D01*
X131057529Y-74020466D01*
X130985841Y-73847395D01*
X130949295Y-73663667D01*
X130949295Y-73476333D01*
X130985841Y-73292605D01*
X131057529Y-73119534D01*
X131161604Y-72963775D01*
X131161605Y-72963773D01*
X131294068Y-72831310D01*
X131449828Y-72727235D01*
X131449829Y-72727234D01*
X131622900Y-72655546D01*
X131806628Y-72619000D01*
X131993962Y-72619000D01*
X132177690Y-72655546D01*
X132177690Y-72655546D01*
G37*
G36*
X135399091Y-72648090D02*
G01*
X133751910Y-73599091D01*
X132800909Y-71951910D01*
X134448090Y-71000909D01*
X135399091Y-72648090D01*
X135399091Y-72648090D01*
G37*
G36*
X94077690Y-71515546D02*
G01*
X94250761Y-71587234D01*
X94250762Y-71587235D01*
X94406522Y-71691310D01*
X94538985Y-71823773D01*
X94538986Y-71823775D01*
X94643061Y-71979534D01*
X94714749Y-72152605D01*
X94751295Y-72336333D01*
X94751295Y-72523667D01*
X94714749Y-72707395D01*
X94643061Y-72880466D01*
X94643060Y-72880467D01*
X94538985Y-73036227D01*
X94406522Y-73168690D01*
X94328113Y-73221081D01*
X94250761Y-73272766D01*
X94077690Y-73344454D01*
X93893962Y-73381000D01*
X93706628Y-73381000D01*
X93522900Y-73344454D01*
X93349829Y-73272766D01*
X93272477Y-73221081D01*
X93194068Y-73168690D01*
X93061605Y-73036227D01*
X92957530Y-72880467D01*
X92957529Y-72880466D01*
X92885841Y-72707395D01*
X92849295Y-72523667D01*
X92849295Y-72336333D01*
X92885841Y-72152605D01*
X92957529Y-71979534D01*
X93061604Y-71823775D01*
X93061605Y-71823773D01*
X93194068Y-71691310D01*
X93349828Y-71587235D01*
X93349829Y-71587234D01*
X93522900Y-71515546D01*
X93706628Y-71479000D01*
X93893962Y-71479000D01*
X94077690Y-71515546D01*
X94077690Y-71515546D01*
G37*
G36*
X125599091Y-65751910D02*
G01*
X124648090Y-67399091D01*
X123000909Y-66448090D01*
X123951910Y-64800909D01*
X125599091Y-65751910D01*
X125599091Y-65751910D01*
G37*
G36*
X103847395Y-65185251D02*
G01*
X104020466Y-65256939D01*
X104020467Y-65256940D01*
X104176227Y-65361015D01*
X104308690Y-65493478D01*
X104308691Y-65493480D01*
X104412766Y-65649239D01*
X104484454Y-65822310D01*
X104521000Y-66006038D01*
X104521000Y-66193372D01*
X104484454Y-66377100D01*
X104412766Y-66550171D01*
X104412765Y-66550172D01*
X104308690Y-66705932D01*
X104176227Y-66838395D01*
X104097818Y-66890786D01*
X104020466Y-66942471D01*
X103847395Y-67014159D01*
X103663667Y-67050705D01*
X103476333Y-67050705D01*
X103292605Y-67014159D01*
X103119534Y-66942471D01*
X103042182Y-66890786D01*
X102963773Y-66838395D01*
X102831310Y-66705932D01*
X102727235Y-66550172D01*
X102727234Y-66550171D01*
X102655546Y-66377100D01*
X102619000Y-66193372D01*
X102619000Y-66006038D01*
X102655546Y-65822310D01*
X102727234Y-65649239D01*
X102831309Y-65493480D01*
X102831310Y-65493478D01*
X102963773Y-65361015D01*
X103119533Y-65256940D01*
X103119534Y-65256939D01*
X103292605Y-65185251D01*
X103476333Y-65148705D01*
X103663667Y-65148705D01*
X103847395Y-65185251D01*
X103847395Y-65185251D01*
G37*
G36*
X103599091Y-64248090D02*
G01*
X101951910Y-65199091D01*
X101000909Y-63551910D01*
X102648090Y-62600909D01*
X103599091Y-64248090D01*
X103599091Y-64248090D01*
G37*
G36*
X125847395Y-62985841D02*
G01*
X126020466Y-63057529D01*
X126020467Y-63057530D01*
X126176227Y-63161605D01*
X126308690Y-63294068D01*
X126308691Y-63294070D01*
X126412766Y-63449829D01*
X126484454Y-63622900D01*
X126521000Y-63806628D01*
X126521000Y-63993962D01*
X126484454Y-64177690D01*
X126412766Y-64350761D01*
X126412765Y-64350762D01*
X126308690Y-64506522D01*
X126176227Y-64638985D01*
X126097818Y-64691376D01*
X126020466Y-64743061D01*
X125847395Y-64814749D01*
X125663667Y-64851295D01*
X125476333Y-64851295D01*
X125292605Y-64814749D01*
X125119534Y-64743061D01*
X125042182Y-64691376D01*
X124963773Y-64638985D01*
X124831310Y-64506522D01*
X124727235Y-64350762D01*
X124727234Y-64350761D01*
X124655546Y-64177690D01*
X124619000Y-63993962D01*
X124619000Y-63806628D01*
X124655546Y-63622900D01*
X124727234Y-63449829D01*
X124831309Y-63294070D01*
X124831310Y-63294068D01*
X124963773Y-63161605D01*
X125119533Y-63057530D01*
X125119534Y-63057529D01*
X125292605Y-62985841D01*
X125476333Y-62949295D01*
X125663667Y-62949295D01*
X125847395Y-62985841D01*
X125847395Y-62985841D01*
G37*
G36*
X114237395Y-62325546D02*
G01*
X114410466Y-62397234D01*
X114410467Y-62397235D01*
X114566227Y-62501310D01*
X114698690Y-62633773D01*
X114698691Y-62633775D01*
X114802766Y-62789534D01*
X114874454Y-62962605D01*
X114911000Y-63146333D01*
X114911000Y-63333667D01*
X114874454Y-63517395D01*
X114802766Y-63690466D01*
X114802765Y-63690467D01*
X114698690Y-63846227D01*
X114566227Y-63978690D01*
X114487818Y-64031081D01*
X114410466Y-64082766D01*
X114237395Y-64154454D01*
X114053667Y-64191000D01*
X113866333Y-64191000D01*
X113682605Y-64154454D01*
X113509534Y-64082766D01*
X113432182Y-64031081D01*
X113353773Y-63978690D01*
X113221310Y-63846227D01*
X113117235Y-63690467D01*
X113117234Y-63690466D01*
X113045546Y-63517395D01*
X113009000Y-63333667D01*
X113009000Y-63146333D01*
X113045546Y-62962605D01*
X113117234Y-62789534D01*
X113221309Y-62633775D01*
X113221310Y-62633773D01*
X113353773Y-62501310D01*
X113509533Y-62397235D01*
X113509534Y-62397234D01*
X113682605Y-62325546D01*
X113866333Y-62289000D01*
X114053667Y-62289000D01*
X114237395Y-62325546D01*
X114237395Y-62325546D01*
G37*
G36*
X114911000Y-61651000D02*
G01*
X113009000Y-61651000D01*
X113009000Y-59749000D01*
X114911000Y-59749000D01*
X114911000Y-61651000D01*
X114911000Y-61651000D01*
G37*
G36*
X144327477Y-50623892D02*
G01*
X144670541Y-50765994D01*
X145155707Y-50966956D01*
X145901093Y-51465008D01*
X146534992Y-52098907D01*
X147033044Y-52844293D01*
X147234006Y-53329459D01*
X147376108Y-53672523D01*
X147551000Y-54551764D01*
X147551000Y-55448236D01*
X147376108Y-56327477D01*
X147234006Y-56670541D01*
X147033044Y-57155707D01*
X146534992Y-57901093D01*
X145901093Y-58534992D01*
X145155707Y-59033044D01*
X144670541Y-59234006D01*
X144327477Y-59376108D01*
X143448236Y-59551000D01*
X142551764Y-59551000D01*
X141672523Y-59376108D01*
X141329459Y-59234006D01*
X140844293Y-59033044D01*
X140098907Y-58534992D01*
X139465008Y-57901093D01*
X138966956Y-57155707D01*
X138765994Y-56670541D01*
X138623892Y-56327477D01*
X138449000Y-55448236D01*
X138449000Y-54551764D01*
X138623892Y-53672523D01*
X138765994Y-53329459D01*
X138966956Y-52844293D01*
X139465008Y-52098907D01*
X140098907Y-51465008D01*
X140844293Y-50966956D01*
X141329459Y-50765994D01*
X141672523Y-50623892D01*
X142551764Y-50449000D01*
X143448236Y-50449000D01*
X144327477Y-50623892D01*
X144327477Y-50623892D01*
G37*
G36*
X86327477Y-50623892D02*
G01*
X86670541Y-50765994D01*
X87155707Y-50966956D01*
X87901093Y-51465008D01*
X88534992Y-52098907D01*
X89033044Y-52844293D01*
X89234006Y-53329459D01*
X89376108Y-53672523D01*
X89551000Y-54551764D01*
X89551000Y-55448236D01*
X89376108Y-56327477D01*
X89234006Y-56670541D01*
X89033044Y-57155707D01*
X88534992Y-57901093D01*
X87901093Y-58534992D01*
X87155707Y-59033044D01*
X86670541Y-59234006D01*
X86327477Y-59376108D01*
X85448236Y-59551000D01*
X84551764Y-59551000D01*
X83672523Y-59376108D01*
X83329459Y-59234006D01*
X82844293Y-59033044D01*
X82098907Y-58534992D01*
X81465008Y-57901093D01*
X80966956Y-57155707D01*
X80765994Y-56670541D01*
X80623892Y-56327477D01*
X80449000Y-55448236D01*
X80449000Y-54551764D01*
X80623892Y-53672523D01*
X80765994Y-53329459D01*
X80966956Y-52844293D01*
X81465008Y-52098907D01*
X82098907Y-51465008D01*
X82844293Y-50966956D01*
X83329459Y-50765994D01*
X83672523Y-50623892D01*
X84551764Y-50449000D01*
X85448236Y-50449000D01*
X86327477Y-50623892D01*
X86327477Y-50623892D01*
G37*
M02*
