G04 #@! TF.GenerationSoftware,KiCad,Pcbnew,(5.1.4-0)*
G04 #@! TF.CreationDate,2022-04-01T12:31:45+08:00*
G04 #@! TF.ProjectId,esp8266_ntp_clock,65737038-3236-4365-9f6e-74705f636c6f,v1.0*
G04 #@! TF.SameCoordinates,Original*
G04 #@! TF.FileFunction,Copper,L2,Bot*
G04 #@! TF.FilePolarity,Positive*
%FSLAX46Y46*%
G04 Gerber Fmt 4.6, Leading zero omitted, Abs format (unit mm)*
G04 Created by KiCad (PCBNEW (5.1.4-0)) date 2022-04-01 12:31:45*
%MOMM*%
%LPD*%
G04 APERTURE LIST*
%ADD10C,9.000000*%
%ADD11C,1.800000*%
%ADD12C,0.100000*%
%ADD13R,1.800000X1.800000*%
%ADD14R,1.700000X1.700000*%
%ADD15O,1.700000X1.700000*%
%ADD16C,1.200000*%
%ADD17O,1.750000X1.200000*%
%ADD18C,0.800000*%
%ADD19C,0.500000*%
G04 APERTURE END LIST*
D10*
X85000000Y-113000000D03*
D11*
X103570000Y-66099705D03*
X102300000Y-63900000D03*
D12*
G36*
X101070577Y-63570577D02*
G01*
X102629423Y-62670577D01*
X103529423Y-64229423D01*
X101970577Y-65129423D01*
X101070577Y-63570577D01*
X101070577Y-63570577D01*
G37*
D11*
X96000000Y-73700000D03*
D12*
G36*
X97229423Y-73370577D02*
G01*
X96329423Y-74929423D01*
X94770577Y-74029423D01*
X95670577Y-72470577D01*
X97229423Y-73370577D01*
X97229423Y-73370577D01*
G37*
D11*
X93800295Y-72430000D03*
X93240000Y-84000000D03*
D13*
X90700000Y-84000000D03*
D11*
X96100000Y-94700000D03*
D12*
G36*
X96429423Y-93470577D02*
G01*
X97329423Y-95029423D01*
X95770577Y-95929423D01*
X94870577Y-94370577D01*
X96429423Y-93470577D01*
X96429423Y-93470577D01*
G37*
D11*
X93900295Y-95970000D03*
X102230000Y-104099705D03*
X103500000Y-101900000D03*
D12*
G36*
X103170577Y-100670577D02*
G01*
X104729423Y-101570577D01*
X103829423Y-103129423D01*
X102270577Y-102229423D01*
X103170577Y-100670577D01*
X103170577Y-100670577D01*
G37*
D13*
X114000000Y-107400000D03*
D11*
X114000000Y-104860000D03*
X124430000Y-101900295D03*
X125700000Y-104100000D03*
D12*
G36*
X126929423Y-104429423D02*
G01*
X125370577Y-105329423D01*
X124470577Y-103770577D01*
X126029423Y-102870577D01*
X126929423Y-104429423D01*
X126929423Y-104429423D01*
G37*
D11*
X132000000Y-94500000D03*
D12*
G36*
X130770577Y-94829423D02*
G01*
X131670577Y-93270577D01*
X133229423Y-94170577D01*
X132329423Y-95729423D01*
X130770577Y-94829423D01*
X130770577Y-94829423D01*
G37*
D11*
X134199705Y-95770000D03*
X137240000Y-84000000D03*
D13*
X134700000Y-84000000D03*
D11*
X134100000Y-72300000D03*
D12*
G36*
X134429423Y-71070577D02*
G01*
X135329423Y-72629423D01*
X133770577Y-73529423D01*
X132870577Y-71970577D01*
X134429423Y-71070577D01*
X134429423Y-71070577D01*
G37*
D11*
X131900295Y-73570000D03*
X125570000Y-63900295D03*
X124300000Y-66100000D03*
D12*
G36*
X124629423Y-67329423D02*
G01*
X123070577Y-66429423D01*
X123970577Y-64870577D01*
X125529423Y-65770577D01*
X124629423Y-67329423D01*
X124629423Y-67329423D01*
G37*
D13*
X113960000Y-60700000D03*
D11*
X113960000Y-63240000D03*
D10*
X85000000Y-55000000D03*
X143000000Y-55000000D03*
X143000000Y-113000000D03*
D14*
X85500000Y-82500000D03*
D15*
X85500000Y-79960000D03*
D14*
X107500000Y-100000000D03*
D15*
X110040000Y-100000000D03*
X112580000Y-100000000D03*
X115120000Y-100000000D03*
X117660000Y-100000000D03*
X120200000Y-100000000D03*
D14*
X111400000Y-110800000D03*
D15*
X113940000Y-110800000D03*
X116480000Y-110800000D03*
D12*
G36*
X138049505Y-103201204D02*
G01*
X138073773Y-103204804D01*
X138097572Y-103210765D01*
X138120671Y-103219030D01*
X138142850Y-103229520D01*
X138163893Y-103242132D01*
X138183599Y-103256747D01*
X138201777Y-103273223D01*
X138218253Y-103291401D01*
X138232868Y-103311107D01*
X138245480Y-103332150D01*
X138255970Y-103354329D01*
X138264235Y-103377428D01*
X138270196Y-103401227D01*
X138273796Y-103425495D01*
X138275000Y-103449999D01*
X138275000Y-104150001D01*
X138273796Y-104174505D01*
X138270196Y-104198773D01*
X138264235Y-104222572D01*
X138255970Y-104245671D01*
X138245480Y-104267850D01*
X138232868Y-104288893D01*
X138218253Y-104308599D01*
X138201777Y-104326777D01*
X138183599Y-104343253D01*
X138163893Y-104357868D01*
X138142850Y-104370480D01*
X138120671Y-104380970D01*
X138097572Y-104389235D01*
X138073773Y-104395196D01*
X138049505Y-104398796D01*
X138025001Y-104400000D01*
X136774999Y-104400000D01*
X136750495Y-104398796D01*
X136726227Y-104395196D01*
X136702428Y-104389235D01*
X136679329Y-104380970D01*
X136657150Y-104370480D01*
X136636107Y-104357868D01*
X136616401Y-104343253D01*
X136598223Y-104326777D01*
X136581747Y-104308599D01*
X136567132Y-104288893D01*
X136554520Y-104267850D01*
X136544030Y-104245671D01*
X136535765Y-104222572D01*
X136529804Y-104198773D01*
X136526204Y-104174505D01*
X136525000Y-104150001D01*
X136525000Y-103449999D01*
X136526204Y-103425495D01*
X136529804Y-103401227D01*
X136535765Y-103377428D01*
X136544030Y-103354329D01*
X136554520Y-103332150D01*
X136567132Y-103311107D01*
X136581747Y-103291401D01*
X136598223Y-103273223D01*
X136616401Y-103256747D01*
X136636107Y-103242132D01*
X136657150Y-103229520D01*
X136679329Y-103219030D01*
X136702428Y-103210765D01*
X136726227Y-103204804D01*
X136750495Y-103201204D01*
X136774999Y-103200000D01*
X138025001Y-103200000D01*
X138049505Y-103201204D01*
X138049505Y-103201204D01*
G37*
D16*
X137400000Y-103800000D03*
D17*
X137400000Y-101800000D03*
D14*
X133400000Y-104200000D03*
D15*
X133400000Y-101660000D03*
D18*
X98400000Y-108200000D03*
X86800000Y-99800000D03*
X99000000Y-90500000D03*
X99400000Y-82800000D03*
X98400000Y-110600000D03*
D19*
X97834315Y-108200000D02*
X98400000Y-108200000D01*
X93440062Y-108200000D02*
X97834315Y-108200000D01*
X86800000Y-101559938D02*
X93440062Y-108200000D01*
X86800000Y-99800000D02*
X86800000Y-101559938D01*
X140000000Y-86500000D02*
X140000000Y-74000000D01*
X138250000Y-88250000D02*
X140000000Y-86500000D01*
X132000000Y-94500000D02*
X138250000Y-88250000D01*
X138250000Y-88250000D02*
X138590001Y-87909999D01*
X129900295Y-63900295D02*
X126900295Y-63900295D01*
X140000000Y-74000000D02*
X129900295Y-63900295D01*
X125570000Y-63900295D02*
X126900295Y-63900295D01*
X102030000Y-104099705D02*
X102230000Y-104099705D01*
X93900295Y-95970000D02*
X102030000Y-104099705D01*
X122400000Y-107400000D02*
X125700000Y-104100000D01*
X114000000Y-107400000D02*
X122400000Y-107400000D01*
X98000000Y-91500000D02*
X99000000Y-90500000D01*
X98000000Y-96400000D02*
X98000000Y-91500000D01*
X103500000Y-101900000D02*
X98000000Y-96400000D01*
X114000000Y-104860000D02*
X118640000Y-104860000D01*
X134700000Y-88800000D02*
X134700000Y-84000000D01*
X118640000Y-104860000D02*
X134700000Y-88800000D01*
X96560000Y-79960000D02*
X99400000Y-82800000D01*
X85500000Y-79960000D02*
X96560000Y-79960000D01*
X98799999Y-110200001D02*
X98400000Y-110600000D01*
X99500001Y-109499999D02*
X98799999Y-110200001D01*
X112639999Y-109499999D02*
X99500001Y-109499999D01*
X113940000Y-110800000D02*
X112639999Y-109499999D01*
M02*
